<svg width="18" height="18" viewBox="0 0 18 18" xmlns="http://www.w3.org/2000/svg">
    <g fill="none" fill-rule="evenodd">
        <circle fill="#171717" cx="9" cy="9" r="9"/>
        <g fill="#FFF" fill-rule="nonzero">
            <path d="M4.675 12.857v-7.2H3.513a1.59 1.59 0 0 1-.258.69c-.13.184-.29.334-.478.447a1.918 1.918 0 0 1-.638.236 3.458 3.458 0 0 1-.735.057v1.1h1.81v4.67h1.46zm3.538.134c.336 0 .665-.046.988-.139a2.73 2.73 0 0 0 .864-.417c.253-.185.457-.418.612-.699.154-.281.231-.614.231-.998 0-.452-.117-.835-.35-1.147-.233-.312-.565-.516-.997-.612v-.02c.35-.117.612-.309.786-.576.175-.268.263-.58.263-.936a1.76 1.76 0 0 0-.124-.602 1.806 1.806 0 0 0-.406-.627 2.344 2.344 0 0 0-.746-.5c-.308-.136-.685-.205-1.131-.205-.295 0-.586.041-.874.124a2.501 2.501 0 0 0-.777.37c-.23.164-.417.37-.56.617a1.663 1.663 0 0 0-.217.854c0 .356.09.668.268.936.178.267.442.449.792.545v.02c-.432.103-.766.309-1.003.618-.237.308-.355.692-.355 1.152 0 .39.077.726.232 1.008.154.28.36.514.617.699.257.185.548.32.874.406.326.086.663.129 1.013.129zm-.01-4.433c-.295 0-.552-.08-.772-.242-.219-.161-.329-.396-.329-.705 0-.164.03-.308.088-.432a.858.858 0 0 1 .241-.308c.103-.082.222-.146.355-.19.134-.045.273-.067.417-.067.226 0 .41.034.55.103a.866.866 0 0 1 .489.581c.027.113.04.217.04.313 0 .309-.102.544-.308.705-.205.161-.463.242-.771.242zm.01 3.343c-.171 0-.336-.03-.494-.088a1.186 1.186 0 0 1-.406-.247 1.208 1.208 0 0 1-.375-.89c0-.37.123-.653.37-.848.247-.195.549-.293.905-.293.172 0 .331.027.478.082.148.055.278.134.391.237a1.1 1.1 0 0 1 .365.833c0 .178-.03.343-.092.494-.062.15-.15.279-.262.385a1.22 1.22 0 0 1-.391.247c-.148.058-.31.088-.489.088zM14.57 11.571V9.525h2.047V8.424H14.57V6.377h-1.1v2.047h-2.048v1.1h2.047v2.047z"/>
        </g>
    </g>
</svg>
