<svg width="99" height="10" viewBox="0 0 99 10" xmlns="http://www.w3.org/2000/svg">
    <path d="M2.63 5.96v2.259h1.758c.67.042 1.255-.42 1.297-1.088v-.042c0-.712-.585-1.172-1.464-1.172l-1.59.042zm0-3.307V4.66h1.633c.585.043 1.13-.376 1.171-.962v-.084c0-.544-.543-.962-1.297-.962H2.63zM.287 1.313h3.181c1.423 0 1.925.042 2.344.21.795.376 1.255 1.13 1.255 2.008 0 .838-.25 1.256-1.088 1.675.88.292 1.465 1.13 1.381 2.05 0 1.381-1.088 2.302-2.678 2.302H.287v-1.34h.628V2.654H.287v-1.34zm97.065-.052a.279.279 0 0 0 .105-.039.21.21 0 0 0 .072-.078.26.26 0 0 0 .026-.125.254.254 0 0 0-.06-.175c-.04-.046-.103-.068-.192-.068h-.47v.495h.394a.776.776 0 0 0 .125-.01zm-.04-.644a.47.47 0 0 1 .318.099c.077.069.119.169.114.272 0 .087-.02.162-.058.227a.302.302 0 0 1-.188.134v.003c.04.008.074.022.1.04.025.018.046.04.061.067a.296.296 0 0 1 .034.087.907.907 0 0 1 .023.204c.002.037.005.071.01.106a.605.605 0 0 0 .024.098c.009.03.024.058.044.082h-.21a.12.12 0 0 1-.028-.059.572.572 0 0 1-.009-.085l-.004-.1a1.097 1.097 0 0 0-.032-.204.231.231 0 0 0-.037-.081.185.185 0 0 0-.068-.056.25.25 0 0 0-.112-.021h-.46v.606h-.19V.616h.669zm-.137-.392a1.152 1.152 0 0 0 0 2.303 1.153 1.153 0 0 0 0-2.303zm0 2.528a1.378 1.378 0 0 1 0-2.753c.759 0 1.376.618 1.376 1.376 0 .759-.617 1.376-1.376 1.376v.001zm-2.45 2.805a1.323 1.323 0 0 0-1.32-1.319h-.044c-.748 0-1.363.572-1.495 1.275l2.858.044zm1.715 1.936c-.308 1.45-1.496 2.33-3.08 2.33-1.846 0-3.21-1.451-3.21-3.474s1.364-3.475 3.21-3.475a3.02 3.02 0 0 1 2.552 1.364c.44.748.703 1.584.66 2.464h-4.75c.176 1.715 1.275 1.803 1.583 1.803.615.043 1.188-.396 1.363-.968l1.672-.044zm-9.06-3.388c.44-.836.923-1.187 1.67-1.187.265 0 .484.044.748.088v1.54c-.264-.044-.527-.089-.791-.089-.836-.043-1.54.572-1.584 1.364v2.55h.792V9.65h-3.079V8.373h.66V4.327h-.66V3.05h2.243v1.056zM82.105 6.57c-1.54.131-2.552.263-2.552 1.187 0 .528.44.88 1.1.88a1.495 1.495 0 0 0 1.496-1.408v-.66h-.044zm1.583 1.847h.572v1.275h-2.068V8.9c-.484.615-1.23.923-2.023.923-1.32 0-2.33-.88-2.33-2.067 0-1.936 2.198-2.155 4.31-2.33 0-1.012-.353-1.32-1.188-1.32-.836 0-1.143.395-1.188 1.01v.045l-1.583-.044c.088-1.32 1.144-2.155 2.727-2.155 1.847 0 2.815.835 2.815 2.33l-.044 3.124zM67.767 3.05h2.64v1.276h-.661l.924 3.914 1.1-5.19h1.715l1.1 5.103.879-3.827h-.66V3.051h2.64v1.276h-.572L75.464 9.65h-1.76l-1.099-4.574-1.055 4.574h-1.76l-1.451-5.322h-.572V3.051zM62.665.984h2.111l2.42 7.301h.659v1.408h-1.98l-.57-1.89h-3.08l-.572 1.89h-2.022V8.285h.66L62.664.984zm1.055 1.628-1.143 3.87h2.287l-1.144-3.87zm-6.07 3.197a2.44 2.44 0 0 0-.66-1.673c-.309-.265-.705-.44-1.101-.397a1.931 1.931 0 0 0-1.762 1.41c-.044.22-.132.44-.132.66h3.656zm.969 2.026c-.088.396-.264.705-.528 1.013-.526.62-1.3.975-2.114.969-1.806 0-3.083-1.409-3.083-3.435 0-1.938 1.277-3.435 2.906-3.435 1.63 0 2.952 1.277 2.952 3.611H53.95c.088.969.308 1.542.749 1.982.352.308.792.484 1.233.484.748 0 1.233-.352 1.586-1.145l1.1-.044zM49.559.67h1.916V9.09h.89v.802h-2.85v-.802h.98V1.427h-.937V.67h.002zm-5.333 6.17a2.071 2.071 0 0 0 1.897 2.075c1.147 0 1.853-1.015 1.853-2.648 0-1.633-.75-2.603-1.853-2.603-.97 0-1.941 1.06-1.941 2.03l.043 1.147zM42.373.533h1.853V4.37c.264-.486 1.014-1.456 2.161-1.456 1.5 0 2.648 1.544 2.648 3.486 0 1.809-1.235 3.353-2.648 3.353-1.19 0-1.764-.794-2.161-1.324v1.235h-1.9v-.793h.928V1.326h-.882V.53h.001zm-9.139 3.704c.315-.45.9-1.395 2.16-1.395.901 0 1.396.45 1.576 1.395.18-.315.36-.585.63-.855.405-.36.9-.585 1.441-.585 1.035 0 1.62.675 1.62 1.846v4.276h.945v.81h-1.89V5.001c0-.945-.315-1.395-.99-1.395-1.17 0-1.8 1.395-1.8 1.89v3.421h.989v.81h-1.98V4.868c0-.855-.315-1.215-.99-1.215-1.036 0-1.8 1.305-1.8 1.936v3.375h.989v.81h-2.926v-.81h.991v-5.22h-.99V2.93h1.98l.045 1.305zm-4.808 1.967-.636.091c-2.09.273-2.772.636-2.772 1.5a1.397 1.397 0 0 0 1.408 1.317c1-.045 1.863-.772 2-1.771V6.203zm1.952 3.545h-1.953V8.52c-.456.863-1.364 1.363-2.318 1.363-1.136.09-2.135-.818-2.226-1.954v-.136c0-1.318 1.135-1.954 3.862-2.226l.635-.046V4.84c0-.773-.59-1.271-1.544-1.271-.954 0-1.454.318-1.636 1.226h-1.045c.09-.544.362-1.041.773-1.409.5-.409 1.181-.59 1.817-.59 1.409 0 2.59.636 2.59 2.362v3.771h.954l.091.819v.001zm-10.26-4.436h2.97v4.217h-.946V8.195c-.177.3-.394.576-.645.818a3.014 3.014 0 0 1-1.936.73c-1.98 0-3.53-1.935-3.53-4.431S17.582.836 19.518.836c1.077-.044 2.023.56 2.54 1.463V.964h.903v2.71h-.947a2.836 2.836 0 0 0-.473-1.032 2.515 2.515 0 0 0-1.807-.946c-1.034 0-2.582.903-2.582 3.528 0 2.066 1.119 3.572 2.582 3.572 1.162-.043 2.109-.904 2.324-2.023.043-.215.043-.473.043-.688h-2.023l.043-.775-.002.002zm-7.402.355c0-.712-.586-1.256-1.256-1.256h-.042c-.711 0-1.297.544-1.423 1.214l2.72.042zm1.59 1.842c-.293 1.38-1.423 2.218-2.93 2.218-1.757 0-3.055-1.382-3.055-3.307s1.298-3.306 3.056-3.306c.962 0 1.883.46 2.427 1.297.418.712.67 1.507.627 2.344H9.912c.167 1.632 1.214 1.715 1.506 1.715.586.042 1.13-.375 1.298-.92l1.59-.042z" fill="#000" fill-rule="evenodd"/>
</svg>
