<svg width="89" height="24" viewBox="0 0 89 24" xmlns="http://www.w3.org/2000/svg">
    <g fill-rule="nonzero" fill="none">
        <path d="M9.27 10.217c-1.067.378-2.202.566-3.643.566-3.033 0-5.626-2.006-5.626-5.057C0 2.315 2.39 0 5.966 0c1.339 0 2.406.257 3.288.652l-.577 1.611c-.288-.257-1.237-.84-2.813-.84-2.474 0-3.863 1.56-3.863 3.96 0 2.537 1.762 4.063 3.71 4.063.696 0 1.187-.069 1.594-.206.068-.565.068-1.628.068-2.16 0-.685 0-1.234-.068-1.731h2c-.034.6-.034 1.32-.034 2.04 0 .771 0 1.988.034 2.811l-.034.017" fill="#A7A7A7"/>
        <path d="M0 18.857c0-3.531 2.56-5.691 5.73-5.691 1.339 0 2.22.154 3.05.549l-.61 1.68c-.271-.378-1.152-.858-2.423-.858-2.17 0-3.712 1.475-3.712 3.995 0 2.4 1.61 3.977 3.712 3.977.983 0 1.762-.206 2.525-.703l.559 1.337c-1 .566-2 .772-3.39.772-3.084 0-5.44-2.058-5.44-5.058m14.371-5.674c-3.102 0-5.474 2.194-5.474 5.537 0 3.137 2.22 5.212 5.474 5.212 3.05 0 5.456-2.16 5.456-5.52 0-3.155-2.203-5.229-5.456-5.229zm0 9.377c-2.085 0-3.39-1.628-3.39-4.011s1.271-3.994 3.39-3.994c2 0 3.389 1.577 3.389 3.994 0 2.4-1.356 4.011-3.39 4.011h.001z" fill="#797676"/>
        <path d="M16.202.103h-1.797c-1.338 3.12-3.423 7.972-4.643 10.543h1.898c.102-.326.322-.806.475-1.183.254-.514.491-1.148.711-1.731h4.237c.203.583.458 1.183.678 1.748.152.395.288.789.424 1.166h2.186C18.947 7.406 17.269 3.069 16.2.103h.002zm-2.813 6.206c.203-.514.474-1.097.677-1.629.39-.96.763-1.851 1.051-2.657a67.91 67.91 0 0 0 1.542 4.286h-3.27z" fill="#A7A7A7"/>
        <path d="M29.912 15.652c-.17.497-.373 1.045-.61 1.714-.73 2.006-1.644 4.629-2.305 6.394H25.25a505.717 505.717 0 0 1-2.677-8.108c-.255 2.434-.509 5.4-.61 8.108H20.2c.509-3.565.763-6.891.898-10.423h2.373c.491 1.732 1.17 3.618 1.813 5.435.39 1.097.746 2.057 1.034 3.017.966-2.434 2.135-5.812 3.05-8.452h2.271c0 3 .254 6.995.56 10.423h-2.068c0-2.76-.085-5.64-.22-8.108h.001z" fill="#797676"/>
        <path d="M30.708 10.629a154 154 0 0 0-.22-8.126c-.187.497-.39 1.063-.644 1.732-.695 1.971-1.627 4.628-2.288 6.394H25.81c-.898-2.657-1.982-5.914-2.677-8.126-.271 2.452-.542 5.417-.61 8.126H20.76c.509-3.566.763-6.892.899-10.44h2.372c.492 1.714 1.17 3.617 1.813 5.417.373 1.097.73 2.074 1.034 3.034.966-2.451 2.135-5.828 3.034-8.451h2.287c0 2.983.255 6.994.56 10.44h-2.051z" fill="#A7A7A7"/>
        <path d="M42.655 15.652c-.186.497-.39 1.045-.644 1.714-.711 2.006-1.626 4.629-2.287 6.394H37.96c-.915-2.657-1.949-5.914-2.66-8.108-.272 2.434-.543 5.4-.644 8.108H32.91c.508-3.565.746-6.891.881-10.423h2.39c.491 1.732 1.152 3.618 1.796 5.435.39 1.097.746 2.057 1.05 3.017.967-2.434 2.12-5.812 3.034-8.452h2.271c0 3 .254 6.995.56 10.423h-2.017c0-2.76-.085-5.64-.22-8.108z" fill="#797676"/>
        <path d="M39.215 5.006c1.068-.309 1.898-1.269 1.898-2.263 0-1.577-1.474-2.537-4-2.537h-3.168c.101 2.04.101 3.274.101 5.349 0 1.954 0 3.137-.101 5.074h3.203c2.948 0 4.406-1.097 4.406-3.12.017-1.252-.898-2.177-2.339-2.503zm-3.304-3.429c.27-.068.677-.068.983-.068 1.694 0 2.372.548 2.372 1.491 0 .995-.78 1.543-2.423 1.543h-.966c-.017-1.046-.017-2.091.034-2.966zm1.016 7.68h-1.033c-.034-1.148-.034-2.194-.034-3.36h1.034c1.898 0 2.779.566 2.779 1.663 0 1.08-.678 1.697-2.746 1.697zm7.491-1.268c0 .411.017.806.017 1.234 1.559 0 3.559 0 4.626-.068l-.542 1.474h-6.033c.102-1.937.102-3.12.102-5.074 0-2.092 0-3.309-.102-5.349h2c-.017.703-.017 1.337-.034 1.869-.017 1.011-.068 2.194-.068 3.48 0 .925.017 1.662.034 2.434" fill="#A7A7A7"/>
        <path d="M46.028 23.76c.101-1.868.101-3.103.101-5.04 0-2.125 0-3.325-.101-5.4h2c-.102 2.057-.102 3.275-.102 5.4 0 1.937 0 3.172.101 5.04h-2m9.473-8.485c-.457-.395-1.185-.772-2.22-.772-1.253 0-1.88.549-1.88 1.286 0 .617.288 1.063 1.627 1.646.322.137.694.308 1.033.462 1.593.738 2.237 1.526 2.237 2.949 0 2.023-1.627 3.069-3.796 3.069-1.27 0-2.406-.206-3.389-.669l.576-1.526c.78.515 1.797.875 2.78.875 1.406 0 1.897-.669 1.897-1.475 0-.754-.508-1.234-1.559-1.714a37.37 37.37 0 0 0-1.203-.549c-1.423-.668-2.118-1.457-2.118-2.794 0-1.663 1.508-2.914 3.813-2.914 1.27 0 2.186.206 2.813.548l-.61 1.578" fill="#797676"/>
        <path d="M49.858 10.629c.101-1.937.101-3.12.101-5.074 0-2.092 0-3.309-.101-5.349h2c0 .497-.018.977-.018 1.389-.017 1.32-.067 2.365-.067 3.96 0 1.474.033 2.502.067 3.754 0 .394.017.857.017 1.337h-2M62.008.206c-.067 2.04-.067 3.274-.067 5.349 0 1.954 0 3.137.067 5.074h-1.796c-1.864-2.914-3.949-6.052-5.423-8.126 0 3.497 0 5.366.102 8.126h-1.814c.102-1.937.102-3.12.102-5.074 0-2.092 0-3.309-.102-5.349h2.085c2 2.709 3.948 5.554 5.169 7.457 0-3.086 0-5.006-.102-7.457h1.78" fill="#A7A7A7"/>
        <path d="M63.059 15.275c-.474-.395-1.186-.772-2.22-.772-1.254 0-1.898.549-1.898 1.286 0 .617.305 1.063 1.644 1.646.339.137.695.308 1.034.462 1.576.738 2.236 1.526 2.236 2.949 0 2.023-1.626 3.069-3.779 3.069-1.304 0-2.406-.206-3.389-.669l.576-1.526c.78.515 1.763.875 2.78.875 1.406 0 1.898-.669 1.898-1.475 0-.754-.509-1.234-1.56-1.714-.398-.19-.799-.373-1.203-.549-1.423-.668-2.118-1.457-2.118-2.794 0-1.663 1.508-2.914 3.813-2.914 1.27 0 2.186.206 2.813.548l-.627 1.578z" fill="#797676"/>
        <path d="M72.261 10.217c-1.068.378-2.22.566-3.644.566-3.033 0-5.643-2.006-5.643-5.057 0-3.411 2.407-5.726 6-5.726 1.321 0 2.406.257 3.287.652l-.576 1.577c-.44-.446-1.61-.823-2.762-.823-2.56 0-3.932 1.56-3.932 3.96 0 2.537 1.745 4.063 3.711 4.063.695 0 1.17-.069 1.56-.206.067-.566.067-1.628.067-2.16 0-.686 0-1.234-.068-1.731h2.017c-.034.6-.034 1.32-.034 2.04 0 .771 0 1.988.034 2.811l-.017.034z" fill="#A7A7A7"/>
        <path d="M64.89 23.76c.1-1.868.1-3.103.1-5.04 0-2.125 0-3.325-.1-5.4h1.999c-.102 2.057-.102 3.275-.102 5.4 0 1.937 0 3.172.102 5.04h-2m2.949-5.04c0 3.137 2.203 5.212 5.457 5.212 3.084 0 5.473-2.16 5.473-5.52 0-3.155-2.203-5.229-5.473-5.229-3.101 0-5.457 2.194-5.457 5.537zm5.457 3.84c-2.034 0-3.39-1.628-3.39-4.011s1.305-3.994 3.39-3.994c2.016 0 3.423 1.577 3.423 3.994-.017 2.4-1.373 4.011-3.423 4.011zm15.302-9.24c-.067 2.057-.067 3.275-.067 5.4 0 1.937 0 3.172.067 5.04H86.87c-1.932-2.914-4-6.051-5.474-8.108 0 3.497 0 5.417.102 8.108H79.75v-.291c.017-.909.102-3.017.102-4.749 0-2.125-.068-4.354-.102-5.4h2.034c2.034 2.743 3.932 5.606 5.169 7.492 0-3.017 0-5.023-.102-7.492h1.745" fill="#797676"/>
    </g>
</svg>
