<svg width="122" height="21" viewBox="0 0 122 21" xmlns="http://www.w3.org/2000/svg">
    <g fill="#000" fill-rule="evenodd">
        <path d="M3.345 13.475c1.906 0 3.055-1.283 3.055-3.394H3.158v1.087H5.02c-.16.623-.686 1.176-1.559 1.176-1.077 0-1.861-.829-1.861-1.95 0-1.123.784-1.951 1.861-1.951.624 0 1.131.33 1.407.748l1.051-.57c-.454-.704-1.229-1.3-2.458-1.3C1.725 7.32.3 8.514.3 10.393c0 1.87 1.425 3.082 3.045 3.082zm4.56-.116.374-1.024h2.654l.374 1.024h1.38L10.4 7.419H8.814l-2.298 5.94h1.39zm2.68-2.12H8.619l.988-2.725.98 2.725zm3.92 2.12V9.084l1.674 4.275h.552l1.674-4.275v4.275h1.274v-5.94h-1.781l-1.443 3.704-1.443-3.704H13.24v5.94h1.265zm9.573 0c1.131 0 1.728-.713 1.728-1.603 0-.748-.508-1.363-1.14-1.46.561-.117 1.024-.615 1.024-1.363 0-.793-.579-1.514-1.71-1.514h-3.126v5.94h3.224zm-.374-3.554H22.12V8.496h1.585c.428 0 .695.285.695.65 0 .383-.267.66-.695.66zm.045 2.476h-1.63v-1.398h1.63c.499 0 .766.32.766.695 0 .427-.285.703-.766.703zm6.786 1.078v-1.113h-2.511V7.419h-1.265v5.94h3.776zm5.085 0v-1.096h-2.939v-1.38h2.877V9.796h-2.877v-1.29h2.94V7.418h-4.204v5.94h4.203zm4.533 0V11.23h.927l1.166 2.129h1.452l-1.336-2.262c.641-.152 1.3-.713 1.3-1.764 0-1.104-.757-1.914-1.995-1.914H38.89v5.94h1.264zm1.327-3.215h-1.327V8.505h1.327c.508 0 .891.32.891.82 0 .498-.383.819-.89.819zm7.339 3.215v-1.096h-2.94v-1.38h2.877V9.796H45.88v-1.29h2.939V7.418h-4.204v5.94h4.204zm3.1.107c1.602 0 2.377-.82 2.377-1.906 0-1.318-1.247-1.612-2.227-1.835-.685-.16-1.184-.285-1.184-.686 0-.356.303-.605.873-.605.579 0 1.22.205 1.7.65l.704-.926c-.587-.543-1.371-.828-2.315-.828-1.398 0-2.253.801-2.253 1.79 0 1.327 1.246 1.594 2.217 1.816.686.16 1.202.312 1.202.757 0 .339-.338.668-1.033.668-.819 0-1.47-.365-1.888-.801l-.694.962c.56.56 1.38.944 2.52.944zm4.497-.107V11.23h1.514c1.282 0 1.994-.864 1.994-1.897 0-1.042-.703-1.914-1.994-1.914h-2.78v5.94h1.266zm1.344-3.215h-1.344V8.505h1.344c.5 0 .873.33.873.82 0 .498-.374.819-.873.819zm5.762 3.322c1.8 0 3.109-1.283 3.109-3.073s-1.31-3.072-3.109-3.072c-1.79 0-3.099 1.282-3.099 3.072s1.31 3.073 3.1 3.073zm0-1.122c-1.095 0-1.799-.847-1.799-1.95 0-1.114.704-1.951 1.8-1.951 1.095 0 1.807.837 1.807 1.95 0 1.104-.712 1.95-1.808 1.95zm5.264 1.015v-3.99l2.832 3.99h1.22v-5.94h-1.265v3.847l-2.752-3.847h-1.3v5.94h1.265zm7.338.107c1.603 0 2.378-.82 2.378-1.906 0-1.318-1.247-1.612-2.226-1.835-.686-.16-1.185-.285-1.185-.686 0-.356.303-.605.873-.605.579 0 1.22.205 1.7.65l.704-.926c-.587-.543-1.371-.828-2.315-.828-1.398 0-2.253.801-2.253 1.79 0 1.327 1.247 1.594 2.217 1.816.686.16 1.203.312 1.203.757 0 .339-.339.668-1.033.668-.82 0-1.47-.365-1.888-.801l-.695.962c.56.56 1.38.944 2.52.944zm4.498-.107v-5.94h-1.265v5.94h1.265zm4.4 0c1.13 0 1.727-.713 1.727-1.603 0-.748-.508-1.363-1.14-1.46.561-.117 1.024-.615 1.024-1.363 0-.793-.579-1.514-1.71-1.514h-3.126v5.94h3.224zm-.375-3.554h-1.585V8.496h1.585c.428 0 .695.285.695.65 0 .383-.267.66-.695.66zm.045 2.476h-1.63v-1.398h1.63c.498 0 .766.32.766.695 0 .427-.285.703-.766.703zm6.786 1.078v-1.113h-2.512V7.419h-1.264v5.94h3.776zm2.672 0v-2.432l2.27-3.508h-1.442l-1.46 2.386-1.479-2.386h-1.443l2.29 3.508v2.432h1.264z" fill-rule="nonzero"/>
        <path d="M111.32 19.157c-4.834 0-8.767-3.933-8.767-8.767s3.933-8.767 8.767-8.767a8.774 8.774 0 0 1 7.726 4.627h1.81a10.38 10.38 0 0 0-2.189-3.207A10.322 10.322 0 0 0 111.32 0c-2.775 0-5.384 1.08-7.347 3.043a10.322 10.322 0 0 0-3.043 7.347c0 2.775 1.08 5.385 3.043 7.347a10.322 10.322 0 0 0 7.347 3.043c2.775 0 5.385-1.08 7.347-3.043a10.416 10.416 0 0 0 1.879-2.558h-1.887a8.766 8.766 0 0 1-7.339 3.978zm8.361-9.254v-2.03h-1.623v2.03h-2.03v1.624h2.03v2.029h1.623v-2.03h2.03V9.904h-2.03z"/>
        <path d="M107.952 14.286V6.575h-1.432l-2.424 2.44.935.982 1.27-1.306v5.595h1.65zm4.261.163c1.611 0 3.085-.704 3.085-2.136 0-.935-.737-1.651-1.658-1.974.852-.29 1.531-.855 1.531-1.813 0-1.443-1.542-2.032-2.958-2.032-1.427 0-2.958.589-2.958 2.032 0 .958.668 1.524 1.52 1.813-.921.323-1.646 1.039-1.646 1.974 0 1.443 1.473 2.136 3.084 2.136zm.006-4.749c-.473-.07-1.305-.337-1.305-.942 0-.547.543-.884 1.305-.884.75 0 1.293.337 1.293.884 0 .605-.82.872-1.293.942zm-.006 3.328c-.802 0-1.42-.36-1.42-.93 0-.675.939-1 1.42-1.058.47.058 1.42.383 1.42 1.058 0 .57-.64.93-1.42.93z" fill-rule="nonzero"/>
    </g>
</svg>
