<svg width="72" height="13" viewBox="0 0 72 13" xmlns="http://www.w3.org/2000/svg">
    <g fill-rule="nonzero" fill="none">
        <path d="M34.93 12.808H1.04a.629.629 0 0 1-.628-.628V6.307A6.136 6.136 0 0 1 6.549.17h28.38c.348 0 .63.282.63.629v11.405a.628.628 0 0 1-.63.629v-.025z" fill="#35A8E0"/>
        <path d="M34.93 13.003H1.04a.751.751 0 0 1-.748-.753V6.333C.293 2.836 3.108 0 6.58 0h28.35c.414.002.75.339.748.753V12.25a.751.751 0 0 1-.748.753zM6.568.303C3.26.308.578 3.01.576 6.341v5.916a.46.46 0 0 0 .459.463H34.93a.464.464 0 0 0 .46-.463V.76a.464.464 0 0 0-.46-.462L6.568.303z" fill="#FFF"/>
        <path d="M12.327 6.369v4.71c0 .048-.04.087-.088.087H10.39a.088.088 0 0 1-.088-.088.088.088 0 0 0-.12-.081 3.678 3.678 0 0 1-.565.132c-.23.036-.464.055-.698.056a4.445 4.445 0 0 1-1.647-.346 4.262 4.262 0 0 1-1.453-.961A4.2 4.2 0 0 1 4.87 8.45a4.472 4.472 0 0 1 0-3.301c.214-.546.54-1.04.956-1.452a4.4 4.4 0 0 1 4.76-.962c.515.206.985.512 1.382.899a.088.088 0 0 1 0 .125l-1.301 1.302a.088.088 0 0 1-.126 0 2.247 2.247 0 0 0-.722-.459 2.396 2.396 0 0 0-2.573.516 2.364 2.364 0 0 0 0 3.35c.2.204.438.369.699.485.252.113.522.181.798.201.274.02.551-.005.817-.075.254-.067.495-.177.71-.327a.088.088 0 0 0 .038-.076v-.302a.088.088 0 0 0-.088-.087H8.642a.088.088 0 0 1-.088-.088v-1.83c0-.049.04-.088.088-.088h3.59a.088.088 0 0 1 .095.088zm6.879 4.747-.303-.905a.088.088 0 0 0-.087-.063h-2.629a.088.088 0 0 0-.082.063l-.314.937a.088.088 0 0 1-.082.062h-1.936a.088.088 0 0 1-.082-.12l2.911-8.55a.088.088 0 0 1 .082-.063h1.772a.088.088 0 0 1 .089.063l2.76 8.55a.088.088 0 0 1-.088.12h-1.924a.088.088 0 0 1-.088-.093v-.001zM16.948 8.11h1.169a.088.088 0 0 0 .088-.12l-.566-1.748a.088.088 0 0 0-.17 0l-.628 1.748a.088.088 0 0 0 .107.12zM29.02 2.433h1.923c.047 0 .085.036.089.082l.502 8.563a.088.088 0 0 1-.088.094h-1.835a.088.088 0 0 1-.089-.082l-.182-3.03a.088.088 0 1 0-.176 0l-1.03 3.056a.088.088 0 0 1-.082.063h-1.887a.088.088 0 0 1-.081-.063l-1.132-3.232a.088.088 0 1 0-.177 0l-.2 3.181a.088.088 0 0 1-.089.083h-1.849a.088.088 0 0 1-.088-.094l.553-8.533a.088.088 0 0 1 .088-.081h1.924c.038 0 .071.026.082.062l1.811 5.169a.088.088 0 0 0 .17 0l1.76-5.169a.088.088 0 0 1 .082-.069z" fill="#FFF"/>
        <path d="M37.002.246h33.901c.347 0 .628.282.628.629v5.873a6.136 6.136 0 0 1-6.136 6.136H37.002a.628.628 0 0 1-.629-.628V.85a.629.629 0 0 1 .629-.604z" fill="#1D1D1B"/>
        <path d="M65.37 13.003H37a.751.751 0 0 1-.747-.754V.754A.751.751 0 0 1 37.002 0h33.901c.415.002.75.34.748.754v5.919c-.003 3.495-2.813 6.327-6.281 6.33zM37 .298a.46.46 0 0 0-.458.462v11.49a.46.46 0 0 0 .46.462H65.37c3.308-.003 5.989-2.705 5.992-6.04V.755a.46.46 0 0 0-.459-.462L37.002.298H37z" fill="#FFF"/>
        <path d="M41.981 10.91a3.1 3.1 0 0 1-.823-.114 2.798 2.798 0 0 1-.78-.351 2.924 2.924 0 0 1-1-1.076 2.974 2.974 0 0 1-.359-1.35.088.088 0 0 1 .088-.096h1.868c.048 0 .088.04.088.089a.81.81 0 0 0 .151.465c.076.105.169.196.277.27a.9.9 0 0 0 .465.157c.168.008.337-.024.49-.094.102-.04.193-.1.27-.176a.955.955 0 0 0 .157-.208.572.572 0 0 0 .063-.195 1.006 1.006 0 0 0 0-.308.629.629 0 0 0-.063-.201.811.811 0 0 0-.156-.207 1.025 1.025 0 0 0-.27-.183l-.277-.106-.315-.107-.629-.214a3.458 3.458 0 0 1-.628-.32 2.515 2.515 0 0 1-.705-.63 2.596 2.596 0 0 1-.497-1.779c.03-.323.121-.637.271-.924.272-.52.71-.935 1.245-1.176.267-.116.552-.186.842-.208.309-.024.62.004.918.083.57.129 1.078.445 1.446.899a2.4 2.4 0 0 1 .378.697c.084.244.13.498.138.755a.088.088 0 0 1-.088.094h-1.823a.088.088 0 0 1-.088-.075.377.377 0 0 0-.17-.302 1.257 1.257 0 0 0-.296-.138h-.1a.578.578 0 0 0-.201 0 .717.717 0 0 0-.233.081.465.465 0 0 0-.188.208.535.535 0 0 0-.038.396.563.563 0 0 0 .238.327c.12.066.244.123.372.17l.427.15.409.132c.138.046.278.101.42.164a2.798 2.798 0 0 1 1.673 2.547 2.76 2.76 0 0 1-.452 1.533 2.962 2.962 0 0 1-2.515 1.32zm26.872-5.056c.004.484-.09.963-.277 1.41a3.672 3.672 0 0 1-.773 1.156c-.33.334-.72.603-1.15.792-.415.184-.861.287-1.315.302a.088.088 0 0 0-.088.088v1.22a.088.088 0 0 1-.087.088h-1.83a.088.088 0 0 1-.088-.088V2.27c0-.049.04-.088.088-.088h1.911c.484.005.961.11 1.402.308.43.193.82.463 1.15.798a3.654 3.654 0 0 1 1.057 2.566zm-3.608 1.572a.088.088 0 0 0 .094.089c.183-.017.362-.066.528-.145.383-.175.684-.49.842-.88a1.666 1.666 0 0 0-1.37-2.283.088.088 0 0 0-.094.076v3.143zm-8.231-5.25a4.227 4.227 0 0 1 1.698.347c.517.22.988.536 1.389.93.397.397.715.866.937 1.383a4.37 4.37 0 0 1 0 3.402 4.483 4.483 0 0 1-2.326 2.332c-1.086.46-2.31.46-3.396 0a4.363 4.363 0 0 1-2.314-2.32 4.4 4.4 0 0 1 0-3.401 4.363 4.363 0 0 1 2.314-2.32 4.227 4.227 0 0 1 1.698-.352zm0 6.722c.316.003.628-.06.917-.183a2.37 2.37 0 0 0 1.258-1.257 2.364 2.364 0 0 0 0-1.83 2.37 2.37 0 0 0-1.257-1.257 2.364 2.364 0 0 0-1.83 0 2.37 2.37 0 0 0-1.257 1.257 2.364 2.364 0 0 0 0 1.83 2.37 2.37 0 0 0 1.257 1.257c.29.124.603.186.918.183h-.006zm-6.96-4.697v6.68a.029.029 0 0 1-.03.028H48.06a.029.029 0 0 1-.03-.029V4.2h-1.637a.029.029 0 0 1-.029-.028V2.206a.029.029 0 0 1 .03-.03h5.292c.016 0 .029.014.029.03v1.966a.029.029 0 0 1-.03.029h-1.63z" fill="#FFF"/>
    </g>
</svg>
