<svg width="59" height="22" viewBox="0 0 59 22" xmlns="http://www.w3.org/2000/svg">
    <g fill="none" fill-rule="evenodd">
        <path d="M7.601 9.15c0 .29-.048 1.156-.77 1.734-.771.626-2.071.77-3.035.77-.385 0-.722 0-1.107-.047-.723-.097-1.59-.29-2.071-.963-.29-.434-.29-.915-.337-1.445h2.408c0 .096-.048.433.192.626.241.192.53.289.964.289.048 0 .626 0 .915-.241.385-.289.337-.819.337-.915v-.819c-.097.193-.145.193-.241.29-.385.336-1.011.384-1.493.384-.722 0-1.3-.144-1.878-.577C1.003 7.85.377 7.08.377 5.586c-.048-.288 0-1.589.819-2.456.578-.626 1.445-.866 2.311-.866.193 0 .964 0 1.493.433.097.096.193.144.338.385v-.626h2.311v6.357c0 .097 0 .193-.048.338M4.471 4.19a1.036 1.036 0 0 0-.482-.096c-.193 0-.337.048-.482.096-.385.193-.626.626-.626 1.445 0 .578.145.915.29 1.108.096.096.192.192.336.24.049.048.241.097.434.097.096 0 .289 0 .53-.097.53-.24.578-.915.578-1.396C5 5.105 4.952 4.479 4.47 4.19M12.754 9.15v-.53c-.096.097-.24.193-.481.29a3.987 3.987 0 0 1-1.734.385c-.193 0-.626 0-1.06-.144-.867-.338-1.348-1.108-1.348-1.975 0-.385.096-1.156.915-1.734.578-.385 1.252-.481 1.926-.578.386-.048.77-.096 1.156-.192.145-.049.337-.097.53-.145 0-.048 0-.193-.048-.289-.096-.289-.29-.481-.867-.481-.193 0-.337.048-.385.048-.434.096-.434.433-.482.578l-2.504.048c.048-.145.048-.29.096-.385.048-.241.193-.723.722-1.156.53-.434 1.349-.723 2.794-.723 1.06 0 2.456.145 2.986 1.252.144.29.192.578.192 1.204v3.66c0 .482.049.579.241.82l-2.649.048zm-1.156-2.793c-.289.048-.674.145-.915.434-.048.048-.096.144-.096.289 0 .192.193.53.674.53.241 0 .434-.097.626-.193.771-.386.723-1.06.723-1.397-.337.145-.674.24-1.012.337M25.084 9.15V5.636c0-.241.096-1.156-.916-1.156-.192 0-.77.048-.915.626-.048.145-.048.289-.048.434V9.15h-2.649V5.539c0-.145 0-.241-.048-.434-.144-.578-.674-.626-.915-.626-.192 0-.722.048-.915.626-.048.096-.048.193-.048.434V9.15h-2.697V2.456h2.6v.963c.145-.289.241-.385.386-.481.289-.241.819-.626 1.734-.626.24 0 1.348 0 1.974.722.097.096.193.24.337.53.097-.29.241-.434.338-.482.289-.337.866-.77 1.974-.722.193 0 .482 0 .867.096.337.097 1.156.385 1.493 1.349.145.337.145.674.145 1.107v4.239h-2.697zM34.33 8.91c-.433.289-.963.385-1.493.385-.674 0-1.155-.24-1.396-.385l-.29-.29v.482h-2.6V0H31.2v2.89c.096-.097.193-.193.337-.29a2.59 2.59 0 0 1 1.349-.385c.818 0 1.54.29 2.07.915.386.434.82 1.156.82 2.505.096.385.047 2.36-1.446 3.275m-1.396-4.383a.894.894 0 0 0-.723-.385c-.096 0-.337.048-.578.192-.433.338-.481.916-.481 1.445 0 .482.048 1.108.433 1.397.097.048.29.193.578.193.096 0 .434-.049.674-.29.241-.24.386-.625.386-1.3 0-.433-.048-.915-.29-1.252M36.354 0h2.697v9.151h-2.697zM39.82 0h2.65v1.782h-2.65V0zm0 2.456h2.65v6.695h-2.65V2.456zM47.767 9.15V5.49c0-.144 0-.289-.048-.433-.048-.24-.24-.578-.867-.578-.963 0-.963.819-.963 1.108V9.15H43.24V2.456h2.505v.915c.192-.24.192-.289.337-.385.481-.482 1.204-.674 1.878-.674.24 0 1.06 0 1.734.578.337.289.578.722.674 1.156.048.24.096.433.096.915v4.19h-2.697zM58.315 9.15c0 .29-.049 1.156-.771 1.734-.77.626-2.07.77-3.034.77-.385 0-.723 0-1.108-.047-.722-.097-1.59-.29-2.07-.963-.29-.434-.29-.915-.338-1.445h2.408c0 .096-.048.433.193.626.144.096.433.24.819.24.048 0 .626 0 .915-.24.385-.29.337-.819.337-.915V8.09c-.097.193-.145.193-.241.289-.385.337-1.011.385-1.493.385-.723 0-1.3-.144-1.878-.578-.482-.385-1.108-1.156-1.108-2.648 0-.338.048-1.59.867-2.505.578-.626 1.493-.867 2.312-.867.192 0 .963 0 1.493.434.096.096.192.144.337.385V2.36h2.311v6.357c.049.193.049.29.049.434m-3.18-4.961a1.036 1.036 0 0 0-.48-.096c-.145 0-.338.048-.482.096-.386.193-.626.626-.626 1.445 0 .578.144.915.289 1.108.096.096.192.192.337.24.048.048.24.097.433.097.096 0 .29 0 .482-.097.53-.24.578-.915.578-1.396.048-.482 0-1.108-.53-1.397M13.958 19.313c-1.396 0-1.926-.53-2.119-1.204-.048-.241-.096-.482-.096-.723l.048-3.275h-.915v-1.445h.915l.048-2.119h2.697v2.12h1.156v1.444h-1.156l-.048 2.6c0 .29.048.723.723.723.144 0 .24 0 .481-.048v1.83c-.289 0-1.011.097-1.734.097M26.384 16.375s0 .289.048.53c.096.24.337.77 1.06.722.433 0 .626-.145.77-.24.29-.242.385-.53.434-.627l2.167.915a1.75 1.75 0 0 1-.337.434c-.482.53-1.012.818-1.252.963a4.774 4.774 0 0 1-1.975.433 4.242 4.242 0 0 1-1.59-.289c-1.396-.578-2.118-1.926-2.118-3.371 0-1.397.626-2.264 1.01-2.6.964-.916 2.313-.964 2.65-.964.433 0 1.83.048 2.793 1.108.337.337.578.77.722 1.252.193.578.193 1.156.193 1.782.096-.048-4.575-.048-4.575-.048zm1.926-1.83c-.192-.578-.674-.626-.867-.626a.962.962 0 0 0-.433.096c-.482.24-.578.77-.578.915h1.926c0-.048 0-.193-.048-.385M35.872 14.593c-.193 0-1.349-.097-1.686.818-.096.241-.096.386-.096.627v3.178h-2.65v-6.694h2.601v.578c.145-.097.241-.193.386-.29.578-.433 1.156-.433 1.878-.433v2.264c-.144 0-.289-.048-.433-.048M40.928 19.216v-.53c-.096.097-.24.193-.481.29a3.987 3.987 0 0 1-1.734.385c-.193 0-.626 0-1.06-.193-.866-.337-1.348-1.108-1.348-1.975 0-.385.096-1.155.915-1.733.578-.386 1.252-.482 1.926-.578.386-.048.771-.097 1.156-.193.193-.048.337-.096.53-.144 0-.049 0-.193-.048-.29-.096-.288-.289-.481-.867-.481-.193 0-.337.048-.385.048-.434.097-.434.434-.482.578l-2.504.048c.048-.144.048-.289.096-.385.048-.24.193-.722.723-1.156.53-.433 1.348-.722 2.793-.722 1.06 0 2.456.144 2.986 1.252.144.289.192.578.192 1.204v3.66c0 .482.049.578.241.819h-2.649v.096zm-1.155-2.793c-.29.048-.675.144-.915.433-.049.048-.097.145-.097.29 0 .192.193.53.674.53.241 0 .434-.097.627-.194.77-.385.722-1.06.722-1.396-.337.144-.674.24-1.011.337M48.442 19.409c-.193 0-.916 0-1.445-.385-.097-.049-.145-.097-.29-.241v2.89h-2.6v-9.151h2.6v.53l.242-.241c.24-.193.77-.434 1.493-.434 2.119 0 2.937 1.734 2.937 3.564 0 1.879-.867 3.468-2.937 3.468m.048-4.768c-.241-.289-.578-.385-.723-.385-.096 0-.289 0-.53.144-.53.29-.577.963-.577 1.493 0 .53.048 1.204.578 1.493.192.096.385.096.481.096.096 0 .29 0 .53-.144.482-.289.53-.963.53-1.445 0-.385-.048-.915-.29-1.252M56.388 19.601c-.193.578-.433 1.205-.963 1.638-.53.433-1.06.433-1.734.433h-.674l-.723-.096V19.65c.241 0 .482.048.771.048.385 0 .578-.097.578-.337 0-.097-.096-.386-.193-.675l-2.119-6.164h2.794l.963 4.382s1.011-4.286 1.011-4.382h2.793l-2.504 7.08zM23.109 13.967a1.918 1.918 0 0 0-.53-1.06c-.481-.481-1.204-.674-1.878-.674-.963 0-1.59.385-1.83.626-.097.096-.145.144-.29.337v-3.13h-2.648v9.15h2.649v-4.768h2.36v4.768h2.263v-4.382c0-.29 0-.53-.096-.867" fill="#7C4299" fill-rule="nonzero"/>
        <path fill="#7A797F" d="m18.57 14.424 1.817.639v3.155l-1.817.998z"/>
    </g>
</svg>
