<svg width="69" height="22" viewBox="0 0 69 22" xmlns="http://www.w3.org/2000/svg">
    <g transform="translate(.27)" fill="none" fill-rule="evenodd">
        <circle fill="#4E7B3D" cx="64.429" cy="18.333" r="3.667"/>
        <path d="M62.532 2.095v.249h-.739V4.19h-.296V2.344h-.735v-.249h1.77zm.738 0 .526 1.484c.05.137.085.243.106.31.028-.076.066-.187.119-.336l.536-1.458h.395V4.19h-.283V2.438L64.02 4.19h-.265l-.645-1.782V4.19h-.287V2.095h.446zM51.113 0c4.464 0 6.876 2.187 7.106 2.406l.018.017-2.941 3.962-.02-.024c-.185-.212-1.603-1.748-4.095-1.748-2.677 0-4.953 2.378-4.953 6.637 0 4.26 2.727 6.326 4.769 6.326 2.042 0 2.865-.809 2.865-.809v-3.51h-3.396V9.34h8.2v10.061S55.419 22 50.91 22c-4.508 0-9.844-2.913-9.844-10.962S46.415 0 51.113 0zM27.685.218l6.796 19.667V4.08h5.114l.118 17.624H29.78l-1.396-3.997h-6.792l-1.302 3.997h-9.414l-3.817-6.74H4.891v6.74H0V.346h8.414c4.238 0 7.548 2.198 7.665 6.817.006.218.02.44.02.668 0 4.514-3.8 6.067-3.8 6.067l3.344 5.917L22.53.218h5.155zm-2.679 6.607-2.118 6.585h4.175l-2.057-6.585zM5.06 4.835v5.991s2.115-.001 3.203-.018c1.08-.017 2.756-.854 2.756-2.873 0-2.232-1.661-3.11-2.756-3.11-1.072 0-3.203.01-3.203.01z" fill="#000"/>
    </g>
</svg>
