<svg width="34" height="34" viewBox="0 0 34 34" xmlns="http://www.w3.org/2000/svg">
    <g fill-rule="nonzero" fill="none">
        <path d="M34 17c0 9.389-7.611 17-17 17S0 26.389 0 17 7.611 0 17 0 34 7.611 34 17" fill="#2196F3"/>
        <path d="M17.239 8.061a8.564 8.564 0 0 0-8.731 8.368 8.209 8.209 0 0 0 2.91 6.228v2.503a.364.364 0 0 0 .557.309l2.028-1.267a9.01 9.01 0 0 0 3.237.595 8.564 8.564 0 0 0 8.73-8.368 8.564 8.564 0 0 0-8.73-8.366l-.001-.002z" fill="#FFF"/>
        <path d="M23.208 14.47a.396.396 0 0 0-.484-.098l-3.928 1.995-2.445-1.953a.399.399 0 0 0-.513.02l-4.533 4.221a.335.335 0 0 0 0 .497c.123.11.3.134.447.06l3.93-1.995 2.446 1.953c.15.12.373.112.513-.02l4.534-4.221a.334.334 0 0 0 .033-.458z" fill="#2196F3"/>
    </g>
</svg>
