<svg width="34" height="34" viewBox="0 0 34 34" xmlns="http://www.w3.org/2000/svg">
    <g fill-rule="nonzero" fill="none">
        <path d="M33.97 16.985c0 9.38-7.605 16.984-16.985 16.984C7.605 33.97 0 26.365 0 16.985 0 7.605 7.604 0 16.985 0c9.38 0 16.983 7.604 16.983 16.985" fill="#1DB954"/>
        <ellipse fill="#FFF" cx="17" cy="16.553" rx="12.974" ry="10.737"/>
        <path d="M17 3.131C9.34 3.131 3.131 9.341 3.131 17c0 7.66 6.21 13.869 13.869 13.869 7.66 0 13.869-6.21 13.869-13.869 0-7.66-6.21-13.869-13.869-13.869zm6.133 20.12a.972.972 0 0 1-1.305.333c-2.508-1.422-5.404-1.65-7.393-1.592-2.202.066-3.819.487-3.834.492a.958.958 0 0 1-1.172-.649.922.922 0 0 1 .666-1.136c.073-.022 1.811-.479 4.229-.556 1.364-.05 2.73.046 4.074.287 1.62.297 3.097.821 4.393 1.555a.91.91 0 0 1 .342 1.267zm1.764-3.694a1.134 1.134 0 0 1-.984.574 1.12 1.12 0 0 1-.574-.158c-2.992-1.778-6.45-2.062-8.823-1.99-2.629.082-4.558.61-4.576.615a1.137 1.137 0 0 1-1.4-.81 1.16 1.16 0 0 1 .796-1.422c.087-.025 2.161-.597 5.047-.694a21.85 21.85 0 0 1 4.862.358c1.934.372 3.698 1.026 5.243 1.944.544.33.726 1.033.409 1.583zm1.006-3.453c-.237 0-.478-.06-.697-.189-7.054-4.134-16.203-1.676-16.295-1.65a1.39 1.39 0 0 1-.735-2.678c.105-.03 2.629-.718 6.138-.833 2.067-.068 4.057.075 5.913.429 2.352.447 4.497 1.232 6.376 2.334a1.392 1.392 0 0 1-.7 2.588z" fill="#1DB954"/>
    </g>
</svg>
