<svg width="34" height="34" viewBox="0 0 34 34" xmlns="http://www.w3.org/2000/svg">
    <g fill="none" fill-rule="evenodd">
        <path d="M17.002 0C7.612 0 0 7.612 0 17.002 0 26.388 7.612 34 17.002 34 26.388 34 34 26.388 34 17.002 34 7.612 26.388 0 17.002 0z" fill="#43619C"/>
        <path d="M25.273 24.189c0 .501-.247.829-.744.829h-4.182v-6.27h2.127l.323-2.686h-2.45v-1.397c0-.716.192-1.29 1.222-1.29h1.465v-2.136c-.448-.032-1.142-.099-2.05-.099-1.89 0-3.323 1.156-3.323 3.278v1.644h-2.24v2.687h2.24v6.269H9.905c-.502 0-.753-.328-.753-.83V9.566c0-.502.251-1.116.753-1.116H24.53c.496 0 .744.614.744 1.116v14.624h-.001z" fill="#FFF"/>
    </g>
</svg>
