<svg width="34" height="34" viewBox="0 0 34 34" xmlns="http://www.w3.org/2000/svg">
    <g fill-rule="nonzero" fill="none">
        <path d="M33.53 16.764c0 9.259-7.507 16.764-16.766 16.764C7.506 33.528 0 26.023 0 16.764 0 7.506 7.505 0 16.764 0S33.53 7.505 33.53 16.764" fill="#24A9E6"/>
        <path d="M24.816 10.034a6.674 6.674 0 0 1-2.157.844 3.347 3.347 0 0 0-2.476-1.099c-1.872 0-3.391 1.559-3.391 3.48 0 .272.028.538.087.791-2.82-.144-5.32-1.527-6.995-3.635a3.541 3.541 0 0 0-.459 1.75 3.5 3.5 0 0 0 1.51 2.896 3.326 3.326 0 0 1-1.537-.434v.043c0 1.686 1.169 3.093 2.723 3.41-.499.14-1.024.161-1.532.061.43 1.384 1.683 2.39 3.168 2.416A6.698 6.698 0 0 1 8.734 22a9.445 9.445 0 0 0 5.2 1.562c6.242 0 9.655-5.3 9.655-9.898 0-.152-.004-.303-.009-.45a6.968 6.968 0 0 0 1.692-1.802 6.645 6.645 0 0 1-1.95.547 3.474 3.474 0 0 0 1.495-1.922" fill="#FFF"/>
    </g>
</svg>
