<svg width="34" height="34" viewBox="0 0 34 34" xmlns="http://www.w3.org/2000/svg">
    <g fill-rule="nonzero" fill="none">
        <path d="M33.528 16.764c0 9.259-7.505 16.764-16.764 16.764C7.506 33.528 0 26.023 0 16.764 0 7.506 7.505 0 16.764 0S33.53 7.505 33.53 16.764" fill="#2A5B83"/>
        <path d="M23.356 8.625h-12.34c-1.063 0-1.924.861-1.924 1.92v12.35c0 1.06.86 1.92 1.924 1.92h12.34c1.062 0 1.925-.86 1.925-1.92V10.546c0-1.06-.862-1.92-1.925-1.92zm-2.628 2.53c0-.28.227-.506.505-.506h1.518c.28 0 .506.227.506.506v1.517a.506.506 0 0 1-.506.507h-1.518a.506.506 0 0 1-.505-.507v-1.517zm-3.523 2.478a3.11 3.11 0 0 1 3.113 3.106 3.11 3.11 0 0 1-3.113 3.106 3.11 3.11 0 0 1-3.113-3.106 3.11 3.11 0 0 1 3.113-3.106zm6.558 9.159c0 .279-.227.505-.506.505H11.116a.506.506 0 0 1-.507-.506v-7.589h2.024c-.263.38-.353 1.087-.353 1.537 0 2.709 2.21 4.914 4.925 4.914 2.716 0 4.925-2.205 4.925-4.914 0-.45-.064-1.147-.39-1.537h2.023v7.589z" fill="#FFF"/>
    </g>
</svg>
