<svg width="34" height="34" viewBox="0 0 34 34" xmlns="http://www.w3.org/2000/svg">
    <g fill-rule="nonzero" fill="none">
        <path d="M16.986 0C7.604 0 0 7.605 0 16.986 0 26.364 7.605 33.97 16.986 33.97c9.378 0 16.983-7.605 16.983-16.983C33.97 7.604 26.364 0 16.986 0z" fill="#D9252A"/>
        <path d="M24.39 11.124c-1.43-.387-7.166-.387-7.166-.387s-5.736 0-7.166.387c-.79.213-1.411.84-1.622 1.639-.383 1.445-.383 4.461-.383 4.461s0 3.016.382 4.46a2.312 2.312 0 0 0 1.623 1.639c1.43.388 7.166.388 7.166.388s5.736 0 7.166-.388a2.31 2.31 0 0 0 1.621-1.638c.384-1.445.384-4.46.384-4.46s0-3.017-.383-4.462a2.309 2.309 0 0 0-1.622-1.639z" fill="#FFF"/>
        <path fill="#D9252A" d="m20.423 17.44-4.693-2.812v5.623z"/>
    </g>
</svg>
