<?xml version="1.0" encoding="UTF-8"?>
<svg width="360px" height="32px" viewBox="0 0 360 32" version="1.1" xmlns="http://www.w3.org/2000/svg" xmlns:xlink="http://www.w3.org/1999/xlink">
    <title>bet_receipt_divider</title>
    <defs>
        <path d="M360,0 L360,18 L359.658702,18.0003218 C358.83512,15.669769 356.612558,14 354,14 C351.387501,14 349.164979,15.669694 348.341353,18.0001649 L347.658702,18.0003218 C346.83512,15.669769 344.612558,14 342,14 C339.387442,14 337.16488,15.669769 336.341298,18.0003218 L335.658702,18.0003218 C334.83512,15.669769 332.612558,14 330,14 C327.387442,14 325.16488,15.669769 324.341298,18.0003218 L323.658702,18.0003218 C322.83512,15.669769 320.612558,14 318,14 C315.387442,14 313.16488,15.669769 312.341298,18.0003218 L311.658702,18.0003218 C310.83512,15.669769 308.612558,14 306,14 C303.387442,14 301.16488,15.669769 300.341298,18.0003218 L299.658702,18.0003218 C298.83512,15.669769 296.612558,14 294,14 C291.387442,14 289.16488,15.669769 288.341298,18.0003218 L287.658702,18.0003218 C286.83512,15.669769 284.612558,14 282,14 C279.387442,14 277.16488,15.669769 276.341298,18.0003218 L275.658702,18.0003218 C274.83512,15.669769 272.612558,14 270,14 C267.387442,14 265.16488,15.669769 264.341298,18.0003218 L263.658702,18.0003218 C262.83512,15.669769 260.612558,14 258,14 C255.387442,14 253.16488,15.669769 252.341298,18.0003218 L251.658702,18.0003218 C250.83512,15.669769 248.612558,14 246,14 C243.387442,14 241.16488,15.669769 240.341298,18.0003218 L239.658702,18.0003218 C238.83512,15.669769 236.612558,14 234,14 C231.387442,14 229.16488,15.669769 228.341298,18.0003218 L227.658702,18.0003218 C226.83512,15.669769 224.612558,14 222,14 C219.387442,14 217.16488,15.669769 216.341298,18.0003218 L215.658702,18.0003218 C214.83512,15.669769 212.612558,14 210,14 C207.387442,14 205.16488,15.669769 204.341298,18.0003218 L203.658702,18.0003218 C202.83512,15.669769 200.612558,14 198,14 C195.387442,14 193.16488,15.669769 192.341298,18.0003218 L191.658702,18.0003218 C190.83512,15.669769 188.612558,14 186,14 C183.387442,14 181.16488,15.669769 180.341298,18.0003218 L179.658702,18.0003218 C178.83512,15.669769 176.612558,14 174,14 C171.387442,14 169.16488,15.669769 168.341298,18.0003218 L167.658702,18.0003218 C166.83512,15.669769 164.612558,14 162,14 C159.387442,14 157.16488,15.669769 156.341298,18.0003218 L155.658702,18.0003218 C154.83512,15.669769 152.612558,14 150,14 C147.387442,14 145.16488,15.669769 144.341298,18.0003218 L143.658702,18.0003218 C142.83512,15.669769 140.612558,14 138,14 C135.387442,14 133.16488,15.669769 132.341298,18.0003218 L131.658702,18.0003218 C130.83512,15.669769 128.612558,14 126,14 C123.387442,14 121.16488,15.669769 120.341298,18.0003218 L119.658702,18.0003218 C118.83512,15.669769 116.612558,14 114,14 C111.387442,14 109.16488,15.669769 108.341298,18.0003218 L107.658702,18.0003218 C106.83512,15.669769 104.612558,14 102,14 C99.3874421,14 97.1648796,15.669769 96.3412977,18.0003218 L95.6587023,18.0003218 C94.8351204,15.669769 92.6125579,14 90,14 C87.3874421,14 85.1648796,15.669769 84.3412977,18.0003218 L83.6587023,18.0003218 C82.8351204,15.669769 80.6125579,14 78,14 C75.3874421,14 73.1648796,15.669769 72.3412977,18.0003218 L71.6587023,18.0003218 C70.8351204,15.669769 68.6125579,14 66,14 C63.3874421,14 61.1648796,15.669769 60.3412977,18.0003218 L59.6587023,18.0003218 C58.8351204,15.669769 56.6125579,14 54,14 C51.3874421,14 49.1648796,15.669769 48.3412977,18.0003218 L47.6587023,18.0003218 C46.8351204,15.669769 44.6125579,14 42,14 C39.3874421,14 37.1648796,15.669769 36.3412977,18.0003218 L35.6587023,18.0003218 C34.8351204,15.669769 32.6125579,14 30,14 C27.3874421,14 25.1648796,15.669769 24.3412977,18.0003218 L23.6587023,18.0003218 C22.8351204,15.669769 20.6125579,14 18,14 C15.3874421,14 13.1648796,15.669769 12.3412977,18.0003218 L11.6587023,18.0003218 C10.8351204,15.669769 8.61255791,14 6,14 C3.38744209,14 1.16487963,15.669769 0.341297682,18.0003218 L0,18 L0,0 L360,0 Z" id="path-1"></path>
        <filter x="-1.9%" y="-27.8%" width="103.9%" height="177.8%" filterUnits="objectBoundingBox" id="filter-2">
            <feOffset dx="0" dy="2" in="SourceAlpha" result="shadowOffsetOuter1"></feOffset>
            <feGaussianBlur stdDeviation="2" in="shadowOffsetOuter1" result="shadowBlurOuter1"></feGaussianBlur>
            <feColorMatrix values="0 0 0 0 0   0 0 0 0 0   0 0 0 0 0  0 0 0 0.15 0" type="matrix" in="shadowBlurOuter1"></feColorMatrix>
        </filter>
    </defs>
    <g id="Page-1" stroke="none" strokeWidth="1" fill="none" fillRule="evenodd">
        <g id="Combined-Shape">
            <use fill="black" fillOpacity="1" filter="url(#filter-2)" xlink:href="#path-1"></use>
            <use fill="#FDFDFD" fillRule="evenodd" xlink:href="#path-1"></use>
        </g>
    </g>
</svg>