<svg xmlns="http://www.w3.org/2000/svg" xmlns:xlink="http://www.w3.org/1999/xlink" width="43" height="43" viewBox="0 0 43 43">
    <defs>
        <circle id="vh03n8kv1a" cx="19.5" cy="19.5" r="19.5"/>
    </defs>
    <g fill="none" fill-rule="evenodd">
        <g>
            <g>
                <g>
                    <g transform="translate(-14.000000, -706.000000) translate(0.000000, 80.000000) translate(0.000000, 620.000000) translate(16.000000, 8.000000)">
                        <mask id="v29rwe81gb" fill="#fff">
                            <use xlink:href="#vh03n8kv1a"/>
                        </mask>
                        <circle cx="19.5" cy="19.5" r="20.5" stroke="#FFF" stroke-width="2"/>
                        <path fill="#FFF" fill-rule="nonzero" d="M14.612 7.423c-2.207 1.337-2.8 3.454-2.692 4.581.14 1.378.483 3.171.483 3.171s-.68.3-.68 1.51c.236 3.037 1.484 1.727 1.74 3.058.617 3.209 2.027 2.637 2.027 4.388 0 2.917-1.477 4.28-6.09 5.897C4.772 31.65 0 33.694 0 37.23V39h39.111v-1.769c0-3.537-4.773-5.58-9.404-7.201-4.613-1.617-6.086-2.979-6.086-5.897 0-1.75 1.406-1.18 2.025-4.388.259-1.332 1.504-.021 1.745-3.058 0-1.21-.682-1.51-.682-1.51s.343-1.793.48-3.171c.141-1.445-.865-4.53-4.998-5.476-.723-.601-1.212-1.558 1.013-2.518-4.867-.186-6 1.887-8.592 3.411z" mask="url(#v29rwe81gb)"/>
                    </g>
                </g>
            </g>
        </g>
    </g>
</svg>
