<?xml version="1.0" encoding="UTF-8"?>
<svg width="32px" height="32px" viewBox="0 0 32 32" version="1.1" xmlns="http://www.w3.org/2000/svg" xmlns:xlink="http://www.w3.org/1999/xlink">
    <title>EDE78A3C-47E7-4CDA-AC2D-DD0FA2F3D2E9</title>
    <g id="JANUS-ICONS-2021" stroke="none" stroke-width="1" fill="none" fill-rule="evenodd">
        <g id="01-Atoms---Iconography" transform="translate(-638.000000, -250.000000)">
            <g id="01-Atoms/Icons/Betslip_NAV_32-" transform="translate(638.000000, 250.000000)">
                <rect id="Rectangle-Copy-2" x="0" y="0" width="32" height="32"></rect>
                <g id="betslip-nav-32" transform="translate(7.000000, 4.000000)" fill="#171717">
                    <path d="M14.627,0 C16.4211715,0 17.8984925,1.37667302 17.9949871,3.12306156 L18,3.305 L18,23 C18,23.8197831 17.0781045,24.2762467 16.4312634,23.8230149 L16.3448751,23.7555206 L14.335,22.013 L12.3271249,23.7555206 C11.9824955,24.0543547 11.4845199,24.0792308 11.1143613,23.8301651 L11.0167892,23.7554461 L9.004,22.01 L6.99121077,23.7554461 C6.64658544,24.0543453 6.14856167,24.0792536 5.77836993,23.8301709 L5.68078923,23.7554461 L3.668,22.01 L1.65521077,23.7554461 C1.03587011,24.2926104 0.0869467189,23.8951622 0.00560241769,23.1094919 L0,23 L0,3.305 C0,1.53405184 1.41684469,0.0985979007 3.18850288,0.00486869133 L3.373,0 L14.627,0 Z M14.627,2 L3.373,2 C2.65306083,2 2.07207982,2.52326457 2.00622025,3.18032778 L2,3.305 L2,20.808 L3.01278923,19.9305539 C3.35741456,19.6316547 3.85543833,19.6067464 4.22563007,19.8558291 L4.32321077,19.9305539 L6.336,21.675 L8.34878923,19.9305539 C8.69341456,19.6316547 9.19143833,19.6067464 9.56163007,19.8558291 L9.65921077,19.9305539 L11.672,21.676 L13.6808751,19.9344794 C14.0254746,19.6356712 14.5233992,19.6107706 14.8935529,19.8597773 L14.9911249,19.9344794 L16,20.809 L16,3.305 C16,2.63311228 15.4608443,2.06996823 14.7601759,2.00604086 L14.627,2 Z" id="Outline"></path>
                    <path d="M8.5,12 C8.77614237,12 9,12.2238576 9,12.5 C9,12.7761424 8.77614237,13 8.5,13 L4.5,13 C4.22385763,13 4,12.7761424 4,12.5 C4,12.2238576 4.22385763,12 4.5,12 L8.5,12 Z M13.5,9 C13.7761424,9 14,9.22385763 14,9.5 C14,9.77614237 13.7761424,10 13.5,10 L4.5,10 C4.22385763,10 4,9.77614237 4,9.5 C4,9.22385763 4.22385763,9 4.5,9 L13.5,9 Z M13.5,6 C13.7761424,6 14,6.22385763 14,6.5 C14,6.77614237 13.7761424,7 13.5,7 L4.5,7 C4.22385763,7 4,6.77614237 4,6.5 C4,6.22385763 4.22385763,6 4.5,6 L13.5,6 Z" id="Text"></path>
                </g>
            </g>
        </g>
    </g>
</svg>