<svg width="80" height="57" viewBox="0 0 80 57" xmlns="http://www.w3.org/2000/svg">
    <path d="M13.888 56.98c8.03 0 15.54-6.736 15.54-15.286 0-6.996-5.18-11.66-11.137-11.66-.518 0-1.813 0-2.072.26 2.85-8.55 12.433-17.1 21.757-21.764l-7.77-8.55C14.146 8.012.16 25.63.16 41.953c0 10.104 6.216 15.027 13.728 15.027zm41.183 0c8.03 0 15.541-6.736 15.541-15.286 0-6.996-5.18-11.66-10.878-11.66-.777 0-1.813 0-2.331.26 3.108-8.55 12.432-17.1 21.757-21.764L71.39-.02C55.33 8.012 41.344 25.63 41.344 41.953c0 10.104 6.216 15.027 13.727 15.027z" fill="#D9D9D9" fill-rule="nonzero"/>
</svg>
