<svg width="30" height="23" viewBox="0 0 30 23" xmlns="http://www.w3.org/2000/svg">
    <path d="M2.941 22.3c6.079-3.186 11.373-9.955 11.373-16.226C14.314 2.29 11.96.3 9.118.3c-3.04 0-5.883 2.688-5.883 5.873 0 2.788 1.961 4.48 4.216 4.48h.784C7.157 13.938 3.53 17.223 0 19.015L2.941 22.3zm15.686 0C24.706 19.114 30 12.345 30 6.074 30 2.29 27.647.3 24.804.3c-3.04 0-5.882 2.688-5.882 5.873 0 2.788 1.96 4.48 4.117 4.48h.883c-1.177 3.285-4.706 6.57-8.236 8.362l2.941 3.285z" fill="#D9D9D9" fill-rule="nonzero"/>
</svg>
