<svg width="24" height="24" xmlns="http://www.w3.org/2000/svg">
    <g fill="none" fill-rule="evenodd">
        <path d="M0 0h24v24H0z"/>
        <g fill="#171717">
            <path d="M9 23c3.976 0 8-1.374 8-4V7c0-2.626-4.024-4-8-4S1 4.374 1 7v12c0 2.626 4.024 4 8 4zm0-2c-3.722 0-6-1.295-6-2v-1.268C4.541 18.57 6.777 19 9 19s4.459-.43 6-1.268V19c0 .705-2.278 2-6 2zM9 5c3.722 0 6 1.295 6 2 0 .705-2.278 2-6 2S3 7.705 3 7c0-.705 2.278-2 6-2zM3 9.732C4.541 10.57 6.777 11 9 11s4.459-.43 6-1.268V11c0 .705-2.278 2-6 2s-6-1.295-6-2V9.732zm0 4C4.541 14.57 6.777 15 9 15s4.459-.43 6-1.268V15c0 .705-2.278 2-6 2s-6-1.295-6-2v-1.268zM21 0h-2v2h-2v2h2v2h2V4h2V2h-2z"/>
        </g>
    </g>
</svg>
