<svg width="24" height="24" xmlns="http://www.w3.org/2000/svg">
    <g fill="none" fill-rule="evenodd">
        <path d="M0 0h24v24H0z"/>
        <g fill="#d11f25">
            <path d="M11.001 10h2v5h-2v-5zM11 16h2v2h-2v-2z"/>
            <path d="M13.768 4.2A1.998 1.998 0 0 0 12 3.138c-.742 0-1.42.407-1.768 1.063L2.894 18.064a1.986 1.986 0 0 0 .054 1.968A1.984 1.984 0 0 0 4.661 21h14.678c.708 0 1.349-.362 1.714-.968a1.989 1.989 0 0 0 .054-1.968L13.768 4.2zM4.661 19 12 5.137 19.344 19H4.661z"/>
        </g>
    </g>
</svg>
