<?xml version="1.0" encoding="UTF-8"?>
<svg width="24px" height="24px" viewBox="0 0 24 24" version="1.1" xmlns="http://www.w3.org/2000/svg" xmlns:xlink="http://www.w3.org/1999/xlink">
    <title>icn_bookmaker_freebet</title>
    <g id="icn_bookmaker_freebet" stroke="none" stroke-width="1" fill="none" fill-rule="evenodd">
        <rect id="Rectangle" x="0" y="0" width="24" height="24"></rect>
        <g id="gift" transform="translate(2.000000, 2.000000)" fill-rule="nonzero">
            <path d="M1.19019956,11.4231972 C1.19019956,13.407175 1.17069976,15.3242771 1.19019956,17.2636711 C1.20969936,19.1584813 1.91169212,19.9832811 3.58867484,19.9832811 C7.83963103,20.005573 12.110087,20.005573 16.3610432,19.9832811 C18.0575257,19.9832811 18.7985181,19.1138976 18.8180179,17.1967955 C18.8180179,15.2796933 18.8180179,13.3402994 18.8180179,11.4009054 C19.7735081,11.267154 20.066005,10.6652731 19.9880058,9.68443021 C19.9295064,8.83733858 19.9880058,7.96795506 19.968506,7.12086343 C19.8905068,5.53813959 19.1300147,4.66875608 17.7260292,4.64646419 C16.9265374,4.62417231 16.1270456,4.64646419 15.3080541,4.64646419 C15.5420517,2.21664873 15.1325559,0.90142751 13.7675699,0.344130385 C13.1435764,0.0766277646 12.3245848,0.0320439946 11.7005912,0.254962845 C11.0570979,0.50017358 10.5696029,1.19122202 10.0041087,1.68164349 C8.97061938,0.121211535 7.80063144,-0.369209936 6.4551453,0.27725473 C5.10965917,0.923719395 4.60266439,2.28352438 4.89516138,4.64646419 C3.93967122,4.64646419 3.00368087,4.62417231 2.06769052,4.64646419 C0.819703377,4.69104796 0.0982108125,5.53813959 0.0397114154,6.96482024 C0.0202116163,7.81191187 0.0982108125,8.68129538 0.0202116163,9.52838701 C-0.0772873789,10.5761056 0.15671021,11.267154 1.19019956,11.4231972 Z" id="Path" fill="#FFFFFF"></path>
            <path d="M1.19023041,11.4231972 C0.156714271,11.267154 -0.077289382,10.5538137 0.0202121402,9.52838701 C0.0982133579,8.68129538 0.0202121402,7.81191187 0.0397124446,6.96482024 C0.0982133579,5.53813959 0.819724622,4.69104796 2.06774411,4.64646419 C3.00375872,4.60188042 3.93977333,4.64646419 4.89528825,4.64646419 C4.60278368,2.28352438 5.09029129,0.923719395 6.4553126,0.27725473 C7.80083361,-0.369209936 8.97085188,0.121211535 10.0238683,1.68164349 C10.5893771,1.19122202 11.0963851,0.50017358 11.7203948,0.254962845 C12.3444045,0.0320439946 13.1634173,0.0766277646 13.7874271,0.344130385 C15.1524484,0.90142751 15.5619548,2.21664873 15.3279511,4.64646419 C16.1469639,4.64646419 16.9464764,4.62417231 17.7459889,4.64646419 C19.1305105,4.66875608 19.9105227,5.53813959 19.9690236,7.12086343 C20.0080242,7.96795506 19.930023,8.83733858 19.9885239,9.68443021 C20.0665251,10.6652731 19.7545202,11.267154 18.8185056,11.4009054 C18.8185056,13.3402994 18.8185056,15.2796933 18.8185056,17.1967955 C18.8185056,19.1138976 18.0579937,19.9832811 16.3614673,19.9832811 C12.1104009,20.005573 7.83983422,20.005573 3.58876785,19.9832811 C1.91174167,19.9832811 1.20973071,19.1584813 1.19023041,17.2636711 C1.1707301,15.346569 1.19023041,13.407175 1.19023041,11.4231972 Z M9.18535522,11.3786135 C7.05982204,11.3786135 5.03179038,11.3786135 2.98425841,11.3786135 C2.98425841,13.5855101 2.98425841,15.725531 2.98425841,17.9101358 C5.09029129,17.9101358 7.11832295,17.9101358 9.18535522,17.9101358 C9.18535522,15.725531 9.18535522,13.5855101 9.18535522,11.3786135 Z M17.0049773,17.9101358 C17.0049773,15.6363635 17.0049773,13.5186344 17.0049773,11.3786135 C14.9769456,11.3786135 13.0269152,11.3786135 11.0573845,11.3786135 C11.0573845,13.5855101 11.0573845,15.725531 11.0573845,17.9101358 C13.0464155,17.9101358 14.9769456,17.9101358 17.0049773,17.9101358 Z M9.16585492,9.26088439 C9.16585492,8.36920899 9.16585492,7.54440925 9.16585492,6.74190139 C6.68931626,6.74190139 4.27127851,6.74190139 1.83374045,6.74190139 C1.83374045,7.6112849 1.83374045,8.41379276 1.83374045,9.26088439 C4.29077881,9.26088439 6.68931626,9.26088439 9.16585492,9.26088439 Z M10.9793832,9.21630062 C13.4754222,9.21630062 15.8154587,9.21630062 18.2139962,9.21630062 C18.2139962,8.52525219 18.2724971,7.92337129 18.1944959,7.36607417 C18.1554953,7.09857155 17.8629907,6.69731762 17.687488,6.69731762 C15.4839536,6.63044196 13.2804192,6.65273385 11.0378841,6.65273385 C11.0183838,7.00940401 10.9988835,7.25461474 10.9988835,7.49982548 C10.9793832,8.0571226 10.9793832,8.61441973 10.9793832,9.21630062 Z M11.1158854,4.66875608 C11.8568969,4.53500477 12.4614064,4.55729665 12.9684143,4.28979403 C13.2999195,4.11145895 13.6704252,3.53186994 13.6509249,3.1529079 C13.6314246,2.75165397 13.2219182,2.17206496 12.8904131,2.08289742 C12.5784082,1.99372988 12.0128994,2.30581627 11.798396,2.64019454 C11.4863911,3.17519978 11.3693893,3.86624822 11.1158854,4.66875608 Z M8.93185127,4.51271288 C8.67834731,2.66248643 8.21034,1.85997857 7.43032783,2.01602176 C6.80631808,2.14977307 6.47481291,2.57331889 6.51381352,3.33124298 C6.57231443,4.24521026 7.35232661,4.64646419 8.93185127,4.51271288 Z" id="Shape" fill="#171717"></path>
            <path d="M9.09090909,11.8181818 C9.09090909,13.9683525 9.09090909,16.0316475 9.09090909,18.1818182 C6.94968553,18.1818182 4.88850772,18.1818182 2.72727273,18.1818182 C2.72727273,16.0533664 2.72727273,13.9683525 2.72727273,11.8181818 C4.82847341,11.8181818 6.90966266,11.8181818 9.09090909,11.8181818 Z" id="Path" fill="#FFFFFF"></path>
            <path d="M17.2727273,18.1818182 C15.1028316,18.1818182 13.0372578,18.1818182 10.9090909,18.1818182 C10.9090909,16.0533664 10.9090909,13.9683525 10.9090909,11.8181818 C13.0163934,11.8181818 15.1028316,11.8181818 17.2727273,11.8181818 C17.2727273,13.9031958 17.2727273,15.9882097 17.2727273,18.1818182 Z" id="Path" fill="#FFFFFF"></path>
            <path d="M9.09090909,9.09090909 C6.61508704,9.09090909 4.25531915,9.09090909 1.81818182,9.09090909 C1.81818182,8.17377313 1.81818182,7.30490748 1.81818182,6.36363636 C4.23597679,6.36363636 6.6344294,6.36363636 9.09090909,6.36363636 C9.09090909,7.23250201 9.09090909,8.12550282 9.09090909,9.09090909 Z" id="Path" fill="#FFFFFF"></path>
            <path d="M10.9090909,9.09090909 C10.9090909,8.45198186 10.9090909,7.86038257 10.9090909,7.26878328 C10.9090909,7.00847959 10.9286897,6.72451193 10.9482885,6.36955236 C13.2021519,6.36955236 15.4168177,6.34588838 17.6314835,6.39321633 C17.8078728,6.39321633 18.1214538,6.84283179 18.1410527,7.10313548 C18.2194479,7.71839874 18.1606515,8.35732597 18.1606515,9.06724512 C15.7891952,9.09090909 13.4177389,9.09090909 10.9090909,9.09090909 Z" id="Path" fill="#FFFFFF"></path>
            <path d="M10.9090909,4.54545455 C11.1817388,3.68070756 11.2866034,2.95618982 11.6431429,2.4186444 C11.873845,2.0680713 12.4820595,1.74086973 12.8176261,1.83435589 C13.1741657,1.92784205 13.6145969,2.5355021 13.6355698,2.95618982 C13.6565427,3.353506 13.2580573,3.96116604 12.9015178,4.14813836 C12.356222,4.42859684 11.7060617,4.42859684 10.9090909,4.54545455 Z" id="Path" fill="#FFFFFF"></path>
            <path d="M9.09090909,4.52504634 C7.31154934,4.64518503 6.43285317,4.23671348 6.36695095,3.25157622 C6.32301614,2.43463313 6.71842942,1.97810611 7.39941896,1.83393968 C8.25614773,1.68977325 8.78336543,2.53074408 9.09090909,4.52504634 Z" id="Path" fill="#FFFFFF"></path>
        </g>
    </g>
</svg>