<svg width="24" height="24" xmlns="http://www.w3.org/2000/svg">
    <g fill="none" fill-rule="evenodd">
        <path d="M0 0h24v24H0z"/>
        <g fill="#fff">
            <path d="M12 2.833c-5.054 0-9.167 4.113-9.167 9.167 0 5.055 4.112 9.167 9.167 9.167s9.167-4.113 9.167-9.167c0-5.054-4.113-9.167-9.167-9.167zm0 16.5c-4.043 0-7.333-3.29-7.333-7.333S7.957 4.667 12 4.667s7.333 3.29 7.333 7.333-3.29 7.333-7.333 7.333z"/>
            <path d="M11.083 11.083h1.834v5.5h-1.834v-5.5zm0-3.666h1.834V9.25h-1.834V7.417z"/>
        </g>
    </g>
</svg>
