<svg width="23" height="20" viewBox="0 0 23 20" fill="none" xmlns="http://www.w3.org/2000/svg">
    <path d="M12.223-.001a9.932 9.932 0 0 1 7.071 2.93A9.927 9.927 0 0 1 22.224 10a9.927 9.927 0 0 1-2.93 7.071 9.93 9.93 0 0 1-7.07 2.93 9.932 9.932 0 0 1-7.072-2.93L6.723 15.5a7.728 7.728 0 0 0 5.5 2.279c2.078 0 4.031-.81 5.5-2.279a7.728 7.728 0 0 0 2.279-5.5c0-2.078-.81-4.031-2.279-5.5a7.728 7.728 0 0 0-5.5-2.279c-2.078 0-4.031.81-5.5 2.279L5.152 2.929a9.932 9.932 0 0 1 7.071-2.93zM10 5.556 15.555 10 10 14.444v-3.333H0V8.89h10V5.556z" fill="#171717"/>
</svg>