<?xml version="1.0" encoding="UTF-8"?>
<svg width="24px" height="24px" viewBox="0 0 24 24" version="1.1" xmlns="http://www.w3.org/2000/svg" xmlns:xlink="http://www.w3.org/1999/xlink">
    <title>icn_logout_white</title>
    <g id="icn_logout_white" stroke="none" stroke-width="1" fill="none" fill-rule="evenodd">
        <g id="Group-2" transform="translate(3.000000, 3.000000)" fill="#FFFFFF" fill-rule="nonzero">
            <polygon id="Path" transform="translate(12.763636, 8.836364) scale(-1, 1) translate(-12.763636, -8.836364) " points="19.6363636 9.81818182 19.6363636 7.85454545 10.8 7.85454545 10.8 4.90909091 5.89090909 8.83636364 10.8 12.7636364 10.8 9.81818182"></polygon>
            <path d="M10.8,0 L1.96363636,0 C0.880690909,0 4.54747351e-13,0.880690909 4.54747351e-13,1.96363636 L4.54747351e-13,5.89090909 L1.96363636,5.89090909 L1.96363636,1.96363636 L10.8,1.96363636 L10.8,15.7090909 L1.96363636,15.7090909 L1.96363636,11.7818182 L4.54747351e-13,11.7818182 L4.54747351e-13,15.7090909 C4.54747351e-13,16.7920364 0.880690909,17.6727273 1.96363636,17.6727273 L10.8,17.6727273 C11.8829455,17.6727273 12.7636364,16.7920364 12.7636364,15.7090909 L12.7636364,1.96363636 C12.7636364,0.880690909 11.8829455,0 10.8,0 Z" id="Path" transform="translate(6.381818, 8.836364) scale(-1, 1) translate(-6.381818, -8.836364) "></path>
        </g>
    </g>
</svg>