<svg width="24" height="24" xmlns="http://www.w3.org/2000/svg">
    <g fill="none" fill-rule="evenodd">
        <path d="M0 0h24v24H0z"/>
        <path d="M13 2c.021 0 .04.011.061.013a.991.991 0 0 1 .259.051c.032.011.064.019.094.033.106.049.207.11.293.196l6 6a.997.997 0 0 1 .196.293c.014.03.023.061.033.093.029.084.046.17.051.259.002.022.013.041.013.062v11c0 1.103-.897 2-2 2H6c-1.103 0-2-.897-2-2V4c0-1.103.897-2 2-2zm-1 2H6v16h12.002L18 10h-5a1 1 0 0 1-1-1V4zm4 12v2H8v-2h8zm0-4v2H8v-2h8zm-6-4v2H8V8h2zm4-2.586V8h2.586L14 5.414z" fill="#171717"/>
    </g>
</svg>
