<svg width="24" height="24" xmlns="http://www.w3.org/2000/svg">
    <path d="M12 4c3.59 0 6.5 2.91 6.5 6.5S15.59 17 12 17s-6.5-2.91-6.5-6.5S8.41 4 12 4zm.095 2c-.476 0-.93.1-1.363.301-.432.201-.78.482-1.042.841-.261.36-.392.763-.392 1.212 0 .301.06.568.178.8.095.185.224.388.385.608l.127.168H9v.812h1.56c.103.216.154.433.154.65 0 .308-.127.602-.38.88a2.867 2.867 0 0 1-.826.608l-.21.1.476.95c.58-.301 1.043-.452 1.393-.452.166 0 .311.018.434.052.123.035.284.095.482.18.223.093.421.164.596.215.174.05.384.075.63.075.68 0 1.203-.153 1.573-.46l.118-.108-.56-1.078a1.202 1.202 0 0 1-.428.307c-.19.089-.405.133-.643.133-.143 0-.27-.017-.38-.052a3.938 3.938 0 0 1-.382-.145 3.314 3.314 0 0 0-.452-.168 1.954 1.954 0 0 0-1.036.04c.246-.154.446-.351.601-.59.155-.24.232-.507.232-.8a1.6 1.6 0 0 0-.015-.233l-.02-.104h1.38V9.93h-1.75l-.178-.243a4.237 4.237 0 0 1-.417-.644 1.466 1.466 0 0 1-.142-.666c0-.379.138-.684.416-.916.278-.232.62-.348 1.024-.348.302 0 .575.083.821.25.197.132.348.294.454.483l.07.148 1.107-.637a2.401 2.401 0 0 0-1.023-1.01C13.234 6.117 12.706 6 12.095 6zM19 20c.553 0 1-.447 1-1v-3c0-.553-.447-1-1-1h-1.016a7.574 7.574 0 0 1-2.28 2h1.993c.165 0 .3.112.3.25v.5c0 .137-.135.25-.3.25H6.3c-.166 0-.3-.113-.3-.25v-.5c0-.138.134-.25.3-.25h1.994a7.611 7.611 0 0 1-2.281-2H5c-.553 0-1 .447-1 1v3c0 .553.447 1 1 1h14z" fill="#171717" fill-rule="evenodd"/>
</svg>
