<svg width="24" height="24" xmlns="http://www.w3.org/2000/svg">
    <g fill="none" fill-rule="evenodd">
        <path d="M0 0h24v24H0z"/>
        <g fill="#171717">
            <path d="M9 24c3.976 0 8-1.374 8-4V8c0-2.626-4.024-4-8-4S1 5.374 1 8v12c0 2.626 4.024 4 8 4zm0-2c-3.722 0-6-1.295-6-2v-1.268C4.541 19.57 6.777 20 9 20s4.459-.43 6-1.268V20c0 .705-2.278 2-6 2zM9 6c3.722 0 6 1.295 6 2 0 .705-2.278 2-6 2S3 8.705 3 8c0-.705 2.278-2 6-2zm-6 4.732C4.541 11.57 6.777 12 9 12s4.459-.43 6-1.268V12c0 .705-2.278 2-6 2s-6-1.295-6-2v-1.268zm0 4C4.541 15.57 6.777 16 9 16s4.459-.43 6-1.268V16c0 .705-2.278 2-6 2s-6-1.295-6-2v-1.268zM17 3v2h6V3z"/>
        </g>
    </g>
</svg>
