<svg width="32" height="32" viewBox="0 0 32 32" xmlns="http://www.w3.org/2000/svg" xmlns:xlink="http://www.w3.org/1999/xlink">
    <defs>
        <rect id="a" x="0" y="0" width="32" height="32" rx="3"/>
    </defs>
    <g fill="none" fill-rule="evenodd">
        <mask id="b" fill="#fff">
            <use xlink:href="#a"/>
        </mask>
        <use fill="#014596" xlink:href="#a"/>
        <path d="M5.818 5.879c1.875-1.753 3.355-2.997 4.44-3.732A52.805 52.805 0 0 1 13.721 0H32v9.975c-1.455-.224-3.457-.974-6.007-2.249-3.825-1.912-6.966-3.46-11.043-3.46-2.717 0-5.761.538-9.132 1.613z" fill="#EE3240" mask="url(#b)"/>
        <g mask="url(#b)">
            <path d="M13.561 18.145s.91-2.594 1.151-3.127c.24-.534.248-.534.63-.532.43.003.637.294.48.645-.145.327-.392.802-1.468 1.146l-.024.179.752 1.689h1.33s-.18-.286-.415-.703c-.305-.543-.395-.773-.572-1.173.63-.184 1.379-.447 1.547-1.154.207-.865-1.023-.82-1.439-.822-.524-.002-1.249 0-1.986 0l-.08.24c.305.057.244.23.112.607-.345.998-.522 1.438-.79 2.113-.269.677-.343.892-.343.892h1.115zM11.15 16.158c-.471 1.615-1.402 1.812-1.764 1.797-.732-.032-1.037-.613-.772-1.524.472-1.614 1.403-1.81 1.764-1.796.732.032 1.038.613.772 1.523m-.803-1.86c-.723.01-2.548.222-2.982 2.265-.245 1.152.52 1.746 1.991 1.729.725-.011 2.548-.223 2.982-2.266.245-1.151-.52-1.746-1.991-1.728M23.392 14.276l-.08.233c.2.055.296.198.186.594-.159.567-1.152 3.068-1.152 3.068s3.169-.002 3.201-.004c-.002.002.23-.694.23-.694h-1.934c.264-.668 1.12-3.198 1.12-3.198h-1.571zM20.291 16.56l-1.099-.002c-.016 0-.032-.023-.02-.041.026-.047.63-.887.91-1.248 0 0 .09.645.25 1.253.006.024-.014.037-.04.037m-.687-1.906C19.439 14.84 17 18.167 17 18.167h1.066l.919-1.245 1.42-.002.328 1.247h1.144s-.834-3.362-.925-3.667c-.091-.307-.96-.29-1.347.153M4.448 17.805c-.7-.041-.845-.603-.657-1.458.333-1.524 1.235-1.589 1.58-1.567.403.024.509.203.601.502h1.137c-.232-.53-.793-1.034-1.97-1-.373.011-2.364.219-2.68 2.042-.102.589.197 1.933 2.094 1.877.28-.008 1.594-.05 2.064-.97H5.413a1.014 1.014 0 0 1-.965.574" fill="#FFF"/>
            <path d="M25.993 16.874c.36-.28.932-.656 1.571-.541.483.086.714.111 1.073-.017-.344-.1-.508-.266-.694-.523.318-.108.423-.125.84-.382-.071-.06-.335-.275-.809-.279-.684-.005-1.063.233-1.592.573l-.39 1.169z" fill="#EE3240"/>
            <path d="M29.76 14.446c-.17.167-.468.445-1.118.185-.652-.261-1.173.07-1.311.143l-.362 1.076c.4-.243.847-.457 1.328-.273.479.183.7.16 1.111-.063l.353-1.068z" fill="#FECD00"/>
            <path d="M26.506 15.338c.529-.34.91-.576 1.593-.572.588.004.963-.062 1.47-.755-.502.263-.809.304-1.345.14-.537-.163-.934-.069-1.376.165l-.342 1.022z" fill="#78BE1F"/>
        </g>
        <path d="M0 20.644c2.516.128 4.674.634 6.474 1.516 2.7 1.323 3.418 2.04 5.91 4.464 1.66 1.617 4.31 3.409 7.95 5.376H0V20.644z" fill="#FECD00" mask="url(#b)"/>
        <path d="M0 22.767c4.956 2.8 9.535 4.562 13.736 5.285 4.201.724 9.632.03 16.292-2.079-1.667 1.559-2.93 2.701-3.793 3.427-.862.725-1.985 1.592-3.37 2.6H0v-9.233z" fill="#78BE1F" mask="url(#b)"/>
    </g>
</svg>
