<svg width="32" height="32" viewBox="0 0 32 32" xmlns="http://www.w3.org/2000/svg" xmlns:xlink="http://www.w3.org/1999/xlink">
    <defs>
        <rect id="a" x="0" y="0" width="32" height="32" rx="3"/>
    </defs>
    <g fill="none" fill-rule="evenodd">
        <mask id="b" fill="#fff">
            <use xlink:href="#a"/>
        </mask>
        <use fill="#004734" xlink:href="#a"/>
        <g mask="url(#b)">
            <g transform="translate(4 7.636)">
                <path d="M4.841 1.019c.885.031 1.917.18 2.819.572 1.47.65 2.737 1.905 2.933 4.068a5.366 5.366 0 0 1-.424 2.704c-.43.908-1.072 1.614-1.827 2.076-.503.322-1.088.565-1.689.76-.7.213-1.446.338-2.177.416l.43 4.679-3.525.298L0 1.458c.52-.11 1.738-.266 2.632-.345a24.34 24.34 0 0 1 2.21-.094zm-.439 3.05c-.145.015-.35.03-.593.07l.407 4.435c.09-.008.47-.039.633-.07.545-.087 1.04-.29 1.38-.557.253-.195.488-.454.61-.807.13-.345.179-.705.139-1.136v-.016c-.065-.745-.471-1.333-1.08-1.654-.423-.22-.927-.313-1.496-.266zM15.677 0c.886.032 1.918.181 2.82.573 1.47.65 2.736 1.905 2.932 4.067a5.366 5.366 0 0 1-.423 2.704c-.43.91-1.073 1.614-1.828 2.077-.503.322-1.088.565-1.689.76-.699.212-1.446.337-2.177.415l.43 4.68-3.524.297L10.836.44c.52-.11 1.739-.267 2.632-.345a24.34 24.34 0 0 1 2.21-.094zm-.438 3.05c-.146.015-.35.031-.593.07l.406 4.436c.09-.008.47-.04.634-.07.544-.087 1.04-.29 1.38-.557.253-.195.487-.454.61-.807.13-.345.178-.705.138-1.136V4.97c-.065-.745-.471-1.333-1.08-1.654-.423-.22-.926-.313-1.495-.266z" fill="#FFF"/>
                <circle fill="#31953D" cx="22.073" cy="13.345" r="2.073"/>
            </g>
        </g>
    </g>
</svg>
