<svg width="32" height="32" viewBox="0 0 32 32" xmlns="http://www.w3.org/2000/svg" xmlns:xlink="http://www.w3.org/1999/xlink">
    <defs>
        <rect id="a" x="0" y="0" width="32" height="32" rx="3"/>
    </defs>
    <g fill="none" fill-rule="evenodd">
        <use fill="#EB1C24" xlink:href="#a"/>
        <path d="m22.797 23.935-.056.055c-.358.938-.524 1.352-2.235 1.545-2.843.359-5.326.718-7.783 1.021a4.513 4.513 0 0 1-.607.056c-1.435 0-1.987-.828-2.373-1.546a79.344 79.344 0 0 1-1.739-3.394c-.497-.994.304-2.484.607-3.036 1.16-2.125 6.596-12.033 6.817-12.364.607-.91 1.408-.994 1.987-1.049.055 0 .11 0 .166-.027 1.131-.056 2.594-.083 3.311-.11l-5.74 14.019c-.359.855-.22 1.407-.028 1.683.166.249.442.497 1.05.497.303 0 5.878-.11 7.671-.138-.276.718-.772 2.015-1.048 2.788z" fill="#FFF"/>
    </g>
</svg>
