<svg width="32" height="32" viewBox="0 0 32 32" xmlns="http://www.w3.org/2000/svg" xmlns:xlink="http://www.w3.org/1999/xlink">
    <defs>
        <rect id="a" x="0" y="0" width="32" height="32" rx="3"/>
    </defs>
    <g fill="none" fill-rule="evenodd">
        <use fill="#FFB500" xlink:href="#a"/>
        <g fill="#1D1B17" fill-rule="nonzero">
            <path d="M4.105 22.474c0-.975.622-.995 1.46-.995h.099c.829 0 1.264.14 1.264 1.082v.646c0 .792-.203 1.128-1.293 1.128h-.212c-1.032 0-1.318-.286-1.318-1.07v-.791zm0 2.072c.332.37.819.562 1.314.518h.303c1.214 0 2.106-.31 2.106-1.716v-.841c0-1.302-.577-1.766-2.073-1.766h-.448a1.376 1.376 0 0 0-1.169.464v-2.073h-.95v5.804h.917v-.381M18.946 20.844h-1.244v-.373c0-.356.236-.646.738-.646h.916v-.697H18.15a1.244 1.244 0 0 0-1.352 1.347v.37h-.489v.737h.49v3.49h.916v-3.49h1.243v-.738M13.673 23.725a1.244 1.244 0 0 0 1.347 1.348h1.14v-.734h-.912c-.502 0-.66-.253-.66-.61v-2.147h1.245v-.738h-1.244v-1.716h-.916v1.716h-.498v.738h.498v2.143M24.202 20.057h.916v-.929h-.916v.929M24.202 25.077h.916V20.74h-.916v4.336M9.216 22.378c0-.829.39-.916 1.335-.916h.187c1.061 0 1.198.27 1.198.83v.231h-2.72v-.145zm1.004 2.682h.829c1.11 0 1.616-.352 1.749-.97l-.83-.248c-.136.38-.463.48-1.18.48h-.212c-1.173 0-1.364-.149-1.364-1.073h3.632v-.788c0-1.45-.75-1.72-1.957-1.72h-.44c-.953 0-2.105.17-2.105 1.658v1.028c0 1.43.999 1.658 1.878 1.658M22.47 23.783c0 .415-.278.556-1.36.556h-.245c-.924 0-1.04-.178-1.04-.53v-.229c0-.414.228-.56.99-.56h.415c.7 0 1.244.138 1.244.594v.17h-.005zm-1.132-3.042h-.344c-1.244 0-1.783.381-1.816.957l.875.29c.041-.414.485-.51 1.169-.51 1.011 0 1.243.063 1.243.792v.415c-.228-.307-.543-.386-1.33-.386h-.374c-1.169 0-1.853.29-1.853 1.22v.264c0 .763.295 1.31 1.514 1.31h.89c.884 0 .97-.149 1.15-.414v.414h.915v-2.802c0-1.214-.8-1.55-2.048-1.55M27.912 20.74a1.215 1.215 0 0 0-1.077.577h-.038v-.576h-.866v4.336h.916v-2.608a.929.929 0 0 1 1.016-.99c.51 0 .754.14.804.282l.58-.386c-.145-.394-.526-.634-1.335-.634M21.101 7.36h-4.216v2.113h-2.25l4.36 5.095 4.357-5.095h-2.25V7.36M9.08 15.745h2.255v2.115h4.211v-2.115h2.272l-4.377-5.098-4.361 5.098"/>
        </g>
    </g>
</svg>
