<svg width="32" height="32" viewBox="0 0 32 32" xmlns="http://www.w3.org/2000/svg" xmlns:xlink="http://www.w3.org/1999/xlink">
    <defs>
        <rect id="a" x="0" y="0" width="32" height="32" rx="3"/>
    </defs>
    <g fill="none" fill-rule="evenodd">
        <mask id="b" fill="#fff">
            <use xlink:href="#a"/>
        </mask>
        <use fill="#01143C" xlink:href="#a"/>
        <g mask="url(#b)" fill-rule="nonzero">
            <path d="M17.814 13.096c.333 0 .688-.184 1.243-.782-.148.479.026.782.425.782.446 0 .82-.468 1.22-.952l1.676-2.032c.364-.44.631-.71.92-.71.272 0 .224.324-.144.783a7222.5 7222.5 0 0 1-2.29 2.854h.83l2.03-2.618c.61-.787 1.027-1.019 1.254-1.019.12 0 .147.087.147.177 0 .243-.184.457-.748 1.159l-1.85 2.3h.812l2.022-2.606c.762-.982 1.02-1.03 1.186-1.03.117 0 .147.09.147.172 0 .597-1.69 1.816-1.69 2.92 0 .327.25.607.716.607 1.305 0 2.655-2.812 2.655-4.32 0-1.264-.744-1.885-1.603-1.885-1.23 0-1.677.675-1.677 1.168 0 .429.227.656.644.656.588 0 .995-.666.995-.858 0-.032-.012-.038-.031-.047-.224.526-.59.699-.876.699-.321 0-.49-.174-.49-.484 0-.348.378-.973 1.359-.973.907 0 1.444.577 1.444 1.723 0 1.988-1.338 4.07-2.322 4.07-.23 0-.295-.12-.295-.25 0-.329.521-.822.959-1.48.345-.519.691-1.022.691-1.474 0-.385-.17-.547-.451-.547-.295 0-.633.21-1.206.825.1-.37.135-.825-.342-.825-.25 0-.687.176-1.315.887.183-.57.016-.887-.376-.887-.39 0-.656.282-.956.645l-1.484 1.798c-.547.663-1.046 1.368-1.367 1.368-.209 0-.3-.323.048-.758l2.4-2.995h-.885l-.194.263c-.037-.203-.197-.302-.387-.302-.635 0-1.428.451-2.016 1.035-.492.49-.923 1.2-1.137 1.746-.312.402-.834 1.011-1.215 1.011-.26 0-.317-.323.032-.758l2.399-2.995h-.885s-1.003 1.364-1.663 2.258c-.176.227-.724.92-.894 1.088-.28.277-.517.407-.687.407-.26 0-.316-.323.032-.758l3.761-4.701h-.87l-3.034 3.964c-.175.227-.724.92-.893 1.088-.28.277-.518.407-.687.407-.26 0-.317-.323.032-.758l3.76-4.701h-.87l-3.163 4.132-.004.005-.002.004-.013.016-.022.03c-.22.299-.93 1.272-1.411 1.272-.26 0-.317-.323.032-.758l2.4-2.995h-.886l-1.79 2.432c-.648.878-.374 1.507.2 1.507.508 0 .842-.387 1.113-.701-.058.429.188.701.562.701.507 0 .858-.386 1.13-.7-.057.428.188.7.562.7.52 0 .876-.406 1.15-.724-.067.445.183.724.565.724.438 0 .853-.404 1.131-.723-.03.334.047.723.437.723zm1.696-3.074c.55-.546.872-.62.988-.62.116 0 .171.07.171.211 0 .44-1.5 2.318-1.873 2.69-.188.186-.552.509-.852.509-.598 0 .496-1.728 1.566-2.79zm-4.848-2.144c.09-.253-.031-.458-.27-.458-.238 0-.504.205-.594.458-.09.253.031.458.27.458.239 0 .504-.205.594-.458zm4.488.458c.239 0 .504-.206.594-.459.09-.253-.031-.458-.27-.458-.238 0-.504.205-.594.458-.09.253.031.459.27.459zM6.09 14.043c-1.575 0-2.503-.95-2.726-2.227.081.021.165.033.249.034.275-.003.545-.068.79-.19a.817.817 0 0 0 .516.167c1.636 0 2.842-3.046 1.81-3.9.865-.395 1.779-.529 2.424-.16-.167.12-.324.252-.47.395-1.241 1.231-1.82 3.742-2.76 4.75a1.079 1.079 0 0 0-.349-.064c-.187 0-.358.087-.381.195-.024.108.108.195.296.195.14 0 .283-.033.47-.144.1.012.2.017.302.018.38 0 .74-.162 1.155-.575 1.087-1.079 2.025-3.354 2.663-3.791-.6 1.001-1.24 3.257-2.111 4.177a.869.869 0 0 0-.338-.075c-.186 0-.357.087-.38.195-.024.108.108.195.295.195a.89.89 0 0 0 .487-.155c.105.028.229.052.353.052.315 0 .694-.176 1.012-.491 1.151-1.144 2.605-3.496 3.838-4.72.448-.445 1.249-1.058 2.317-1.058a2.56 2.56 0 0 1 1.603.585c.023-.022.014-.061-.038-.113-.523-.519-1.151-.74-1.72-.74-.568 0-1.525.196-2.684 1.347-1.237 1.228-2.64 3.687-3.562 4.602-.386.384-.638.47-.84.47-.05 0-.1-.008-.148-.021.152-.11.332-.268.556-.49 1.51-1.5 1.853-4.253 2.695-5.089-.059-.058-.47.036-1.195.755-1.165 1.156-1.827 3.18-2.975 4.319-.36.356-.735.504-.972.504a.6.6 0 0 1-.14-.018c.147-.11.32-.262.53-.471.848-.842 1.754-3.38 2.742-4.623 1.106-.051 1.09-.574.735-.574-.2 0-.489.132-.772.313-.28-.243-.75-.422-1.402-.422-.69 0-1.35.193-1.927.506-1.265 0-3.011 1.327-3.011 3.57 0 .063.001.125.005.186-.304-.2-.574-.567-.574-1.189 0-1.8 2.765-3.992 6.026-3.992 1.303 0 2.63.429 3.454 1.022l.047-.054c-.507-.503-1.743-1.285-3.885-1.285-2.816 0-5.92 1.64-5.92 4.3 0 .722.432 1.202.872 1.431.199 1.607 1.53 2.56 2.891 2.56h20.238v-.212H6.092zm.435-6.019c1.109.695-.13 3.619-1.528 3.619a.69.69 0 0 1-.383-.103c.458-.299.937-.868 1.246-1.934l-.063-.023c-.231.7-.724 1.449-1.324 1.83-.168-.202-.224-.507-.224-.792 0-.883 1.063-1.982 2.276-2.597zm-3.214 3.169c0-1.41 1.228-3.097 2.406-3.296-1.035.675-1.733 1.73-1.733 2.654 0 .384.09.739.284.976-.191.09-.391.142-.595.142-.093 0-.212-.018-.34-.06a3.74 3.74 0 0 1-.022-.416z" fill="#FAFF05"/>
            <path d="M13.531 15.273h2.95v10.182h-2.95V15.273zm9.798 10.182h5.035v-3.143h-2.03v-7.04H23.33v10.183zm-5.76 0h5.034v-3.143h-2.028v-7.04H17.57v10.183zM9.493 15.273v3.583H8.04v-3.583H5.09v10.182h2.95v-4.033h1.453v4.033h2.95V15.273h-2.95z" fill="#FFF"/>
        </g>
    </g>
</svg>
