<svg width="32" height="32" viewBox="0 0 32 32" xmlns="http://www.w3.org/2000/svg">
    <g fill="none" fill-rule="evenodd">
        <rect width="32" height="32" rx="3" fill="#15805D"/>
        <g fill-rule="nonzero">
            <path d="M22.244 6.959c1.022-.325 2.027-.701 3.053-1.03v2.673h1.394v2.018h-1.394v2.111a.845.845 0 0 0 .452.79c.315.047.637.016.938-.089v2.027a6.115 6.115 0 0 1-2.652.326 1.968 1.968 0 0 1-1.36-.845 3.336 3.336 0 0 1-.422-1.69v-2.626h-1.069V8.597h1.069V6.955l-.009.004zM14.584 9.455c.777-.782 1.934-1.01 2.998-1.005a3.184 3.184 0 0 1 2.264.734c.594.612.959 1.41 1.034 2.26.061.502.083 1.01.064 1.516h-4.249c.003.255.098.5.266.692.365.273.812.412 1.267.393a4.556 4.556 0 0 0 2.268-.448v1.829a8.615 8.615 0 0 1-2.703.422 4.366 4.366 0 0 1-2.956-.845 3.585 3.585 0 0 1-1.127-2.592c-.068-1.03.114-2.167.844-2.931l.03-.025zm2.386.89c-.197.342-.29.734-.266 1.128H18.3a2.111 2.111 0 0 0-.24-1.136.684.684 0 0 0-1.09 0v.009zM5.454 5.472h3.057v4.025c.273-.434.681-.765 1.162-.942a2.534 2.534 0 0 1 2.597.63c.59.744.901 1.672.878 2.622a5.393 5.393 0 0 1-.536 2.745 2.377 2.377 0 0 1-1.525 1.19 2.534 2.534 0 0 1-1.967-.266 2.63 2.63 0 0 1-.803-1.106c0 .422 0 .845-.02 1.296H5.453V5.472zm3.564 5.068a.693.693 0 0 0-.473.502 3.695 3.695 0 0 0-.11 1.098c-.024.387.054.773.228 1.12a.638.638 0 0 0 1.03 0c.202-.367.295-.783.271-1.2a2.732 2.732 0 0 0-.186-1.208.642.642 0 0 0-.76-.32v.008z" fill="#F9FCFF"/>
            <path d="M5.513 16.929a8.302 8.302 0 0 1 3.003-.359 4.08 4.08 0 0 1 2.533.92 2.204 2.204 0 0 1 0 3.235 2.415 2.415 0 0 1-.844.448c.468.128.891.386 1.22.743a2.369 2.369 0 0 1-.844 3.56c-1.06.57-2.314.562-3.484.448a10.135 10.135 0 0 1-1.622-.304c-.02-.706 0-1.415 0-2.112a5.257 5.257 0 0 0 2.86.279c.641-.16.67-1.153.1-1.423-.57-.27-1.304-.182-1.946-.097v-2.002c.496.041.996.031 1.49-.03a.845.845 0 0 0 .714-.523.883.883 0 0 0-.156-.748 1.144 1.144 0 0 0-.82-.346 5.418 5.418 0 0 0-2.166.346c-.02-.671 0-1.35 0-2.022l-.038-.013zM20.538 16.722h5.769v2.112H23.22v1.389a4.882 4.882 0 0 1 1.752.105c.814.29 1.423.975 1.618 1.816a3.34 3.34 0 0 1-.28 2.395 2.956 2.956 0 0 1-1.845 1.267 7.956 7.956 0 0 1-4.015-.207v-2.087c.844.216 1.73.423 2.58.144.696-.215.802-1.267.249-1.69a2.031 2.031 0 0 0-1.17-.328 5.566 5.566 0 0 0-1.347.156.633.633 0 0 0-.25.126.988.988 0 0 0 .039-.228v-4.97h-.013zM13.35 17.989a3.986 3.986 0 0 1 2.822-1.41 10.08 10.08 0 0 1 2.998.24v2.112a6.436 6.436 0 0 0-2.45-.292 1.69 1.69 0 0 0-1.266.782 2.352 2.352 0 0 0-.228.983 3.104 3.104 0 0 1 2.111-.527c.95.065 1.798.613 2.247 1.452.304.631.404 1.341.287 2.031a2.8 2.8 0 0 1-1.081 1.846 4.198 4.198 0 0 1-3.104.739 3.653 3.653 0 0 1-2.394-1.351 4.801 4.801 0 0 1-1.005-2.956c-.03-1.267.228-2.648 1.077-3.649h-.013zm2.492 3.657a.95.95 0 0 0-.57.752 1.52 1.52 0 0 0 .245 1.334.942.942 0 0 0 1.466-.114c.301-.49.314-1.103.033-1.605a.988.988 0 0 0-1.174-.367z" fill="#F8DB16"/>
        </g>
    </g>
</svg>
