<svg width="32" height="32" viewBox="0 0 32 32" xmlns="http://www.w3.org/2000/svg" xmlns:xlink="http://www.w3.org/1999/xlink">
    <defs>
        <rect id="a" x="0" y="0" width="32" height="32" rx="3"/>
    </defs>
    <g fill="none" fill-rule="evenodd">
        <mask id="b" fill="#fff">
            <use xlink:href="#a"/>
        </mask>
        <use fill="#FFF" xlink:href="#a"/>
        <g mask="url(#b)">
            <path fill="#236" d="M0 0h32v16H0z"/>
            <path fill="#D82231" d="M0 16h32v16H0z"/>
        </g>
        <path d="M19.655 22.295a3.118 3.118 0 0 0-.495-.965 2.727 2.727 0 0 0-.85-.728c-.345-.193-.754-.284-1.217-.284-.399 0-.786.08-1.131.25-.345.17-.657.398-.915.693a3.283 3.283 0 0 0-.614 1.046c-.14.398-.215.84-.215 1.307 0 .466.064.897.204 1.295.14.398.345.75.603 1.046.27.295.592.534.98.704.388.17.818.25 1.303.25.452 0 .872-.057 1.249-.182.377-.125.678-.25.894-.363l.043-.023.01-.046c.033-.215.011-.386-.075-.522a.425.425 0 0 0-.355-.216.91.91 0 0 0-.323.068c-.097.045-.226.09-.366.136-.14.046-.302.103-.474.137a2.56 2.56 0 0 1-.625.057c-.28 0-.549-.046-.796-.137a1.907 1.907 0 0 1-.646-.398 1.998 1.998 0 0 1-.453-.647 2.442 2.442 0 0 1-.183-.796h4.544l.022-.068c.021-.114.043-.307.043-.59 0-.33-.054-.671-.162-1.024zm-2.562-1.125c.258 0 .506.057.71.16.216.102.399.25.539.431.15.182.269.398.366.648.075.216.129.455.15.693H15.23c.032-.25.086-.488.172-.704.097-.25.226-.466.388-.648.161-.182.355-.33.57-.432.227-.09.463-.148.733-.148zm7.623 5.205a3.901 3.901 0 0 1-1.744.432c-1.185 0-1.906-.716-1.95-1.955v-5.716c.044-.238.173-.397.56-.397.173 0 .367.045.442.08v1.488h2.423c.01.102.043.273.043.432 0 .375-.15.488-.366.431h-2.1v3.591c.01.773.366 1.103 1.045 1.103.613 0 .98-.25 1.27-.25.29.011.43.272.377.761zM10.363 20.33a2.46 2.46 0 0 0-2.078 1.09V18.24a2.048 2.048 0 0 0-.452-.057c-.42 0-.56.159-.56.409v8.102c.097.034.301.08.473.08.399 0 .539-.17.539-.5v-.512a2.46 2.46 0 0 0 2.078 1.091c1.507 0 2.875-1.216 2.875-3.272 0-2.035-1.368-3.25-2.875-3.25zm-.183 5.602c-.808 0-1.561-.5-1.884-1.227V22.5a2.096 2.096 0 0 1 1.895-1.227c1.173 0 2.046.954 2.046 2.33-.011 1.374-.883 2.329-2.057 2.329z" fill="#FFF" fill-rule="nonzero" mask="url(#b)"/>
        <path d="M19.256 4.6c.267 0 .65.067.8.117l2.403 3.887 1.217-2.886c.417-1 1.068-1.1 1.552-1.084.283 0 .634.1.784.183l-3.77 8.407c-.284.634-.667.901-1.368.884-.417 0-.734-.1-.9-.183l1.6-3.37-2.618-4.12-1.602 1.702 2.236 3.42c-.184.083-.584.2-1.068.2-.734 0-1.184-.284-1.535-.818L15.12 7.987l2.336-2.536c.483-.534.95-.85 1.801-.85zm-4.687-2.418c.15 0 .317.016.45.05v8.524c0 .617-.25.984-1.451.984-.167 0-.3-.017-.434-.034v-8.24c0-.617.217-1.284 1.435-1.284zM12.1 4.784c.033.133.033.25.033.384 0 1-.533 1.217-1.05 1.217-.4 0-1.001-.066-1.702-.066-.7 0-1 .2-1 .433 0 .25.283.35.717.434l1.384.25c1.435.267 2.052 1.068 2.052 2.069 0 1.15-.75 2.001-2.285 2.168-1.118.117-2.72-.017-3.487-.1a1.645 1.645 0 0 1-.05-.4c0-1.001.55-1.235 1.051-1.235.534 0 1.368.1 1.985.1.684 0 .9-.233.9-.45 0-.284-.266-.4-.8-.517l-1.451-.284C7.179 8.554 6.545 7.72 6.545 6.836c0-1.085.768-1.985 2.269-2.152 1.134-.117 2.519.017 3.286.1z" fill="#FFF" mask="url(#b)"/>
    </g>
</svg>
